# https://github.com/mikedh/trimesh
v -0.21000000 -0.04000000 -0.24000000 0.44705882 0.40000000 0.34901961
v -0.21000000 -0.04000000 0.24000000 0.44705882 0.40000000 0.34901961
v -0.21000000 0.28000000 -0.24000000 0.44705882 0.40000000 0.34901961
v -0.21000000 0.28000000 0.24000000 0.44705882 0.40000000 0.34901961
v 0.21000000 -0.04000000 -0.24000000 0.44705882 0.40000000 0.34901961
v 0.21000000 -0.04000000 0.24000000 0.44705882 0.40000000 0.34901961
v 0.21000000 0.28000000 -0.24000000 0.44705882 0.40000000 0.34901961
v 0.21000000 0.28000000 0.24000000 0.44705882 0.40000000 0.34901961
v -0.16000000 -0.42000000 -0.15500000 0.44705882 0.40000000 0.34901961
v -0.16000000 -0.42000000 0.39500000 0.44705882 0.40000000 0.34901961
v -0.16000000 -0.14000000 -0.15500000 0.44705882 0.40000000 0.34901961
v -0.16000000 -0.14000000 0.39500000 0.44705882 0.40000000 0.34901961
v 0.12000000 -0.42000000 -0.15500000 0.44705882 0.40000000 0.34901961
v 0.12000000 -0.42000000 0.39500000 0.44705882 0.40000000 0.34901961
v 0.12000000 -0.14000000 -0.15500000 0.44705882 0.40000000 0.34901961
v 0.12000000 -0.14000000 0.39500000 0.44705882 0.40000000 0.34901961
v -0.05000000 -0.08000000 -0.09000000 0.14901961 0.14901961 0.14901961
v 0.09000000 -0.08000000 -0.09000000 0.14901961 0.14901961 0.14901961
v 0.09000000 -0.08000000 0.09000000 0.14901961 0.14901961 0.14901961
v -0.05000000 -0.08000000 0.09000000 0.14901961 0.14901961 0.14901961
v 0.08730994 -0.05268735 -0.09000000 0.14901961 0.14901961 0.14901961
v 0.08730994 -0.05268735 0.09000000 0.14901961 0.14901961 0.14901961
v 0.07934313 -0.02642432 -0.09000000 0.14901961 0.14901961 0.14901961
v 0.07934313 -0.02642432 0.09000000 0.14901961 0.14901961 0.14901961
v 0.06640575 -0.00222017 -0.09000000 0.14901961 0.14901961 0.14901961
v 0.06640575 -0.00222017 0.09000000 0.14901961 0.14901961 0.14901961
v 0.04899495 0.01899495 -0.09000000 0.14901961 0.14901961 0.14901961
v 0.04899495 0.01899495 0.09000000 0.14901961 0.14901961 0.14901961
v 0.02777983 0.03640575 -0.09000000 0.14901961 0.14901961 0.14901961
v 0.02777983 0.03640575 0.09000000 0.14901961 0.14901961 0.14901961
v 0.00357568 0.04934313 -0.09000000 0.14901961 0.14901961 0.14901961
v 0.00357568 0.04934313 0.09000000 0.14901961 0.14901961 0.14901961
v -0.02268735 0.05730994 -0.09000000 0.14901961 0.14901961 0.14901961
v -0.02268735 0.05730994 0.09000000 0.14901961 0.14901961 0.14901961
v -0.05000000 0.06000000 -0.09000000 0.14901961 0.14901961 0.14901961
v -0.05000000 0.06000000 0.09000000 0.14901961 0.14901961 0.14901961
v -0.07731265 0.05730994 -0.09000000 0.14901961 0.14901961 0.14901961
v -0.07731265 0.05730994 0.09000000 0.14901961 0.14901961 0.14901961
v -0.10357568 0.04934313 -0.09000000 0.14901961 0.14901961 0.14901961
v -0.10357568 0.04934313 0.09000000 0.14901961 0.14901961 0.14901961
v -0.12777983 0.03640575 -0.09000000 0.14901961 0.14901961 0.14901961
v -0.12777983 0.03640575 0.09000000 0.14901961 0.14901961 0.14901961
v -0.14899495 0.01899495 -0.09000000 0.14901961 0.14901961 0.14901961
v -0.14899495 0.01899495 0.09000000 0.14901961 0.14901961 0.14901961
v -0.16640575 -0.00222017 -0.09000000 0.14901961 0.14901961 0.14901961
v -0.16640575 -0.00222017 0.09000000 0.14901961 0.14901961 0.14901961
v -0.17934313 -0.02642432 -0.09000000 0.14901961 0.14901961 0.14901961
v -0.17934313 -0.02642432 0.09000000 0.14901961 0.14901961 0.14901961
v -0.18730994 -0.05268735 -0.09000000 0.14901961 0.14901961 0.14901961
v -0.18730994 -0.05268735 0.09000000 0.14901961 0.14901961 0.14901961
v -0.19000000 -0.08000000 -0.09000000 0.14901961 0.14901961 0.14901961
v -0.19000000 -0.08000000 0.09000000 0.14901961 0.14901961 0.14901961
v -0.18730994 -0.10731265 -0.09000000 0.14901961 0.14901961 0.14901961
v -0.18730994 -0.10731265 0.09000000 0.14901961 0.14901961 0.14901961
v -0.17934313 -0.13357568 -0.09000000 0.14901961 0.14901961 0.14901961
v -0.17934313 -0.13357568 0.09000000 0.14901961 0.14901961 0.14901961
v -0.16640575 -0.15777983 -0.09000000 0.14901961 0.14901961 0.14901961
v -0.16640575 -0.15777983 0.09000000 0.14901961 0.14901961 0.14901961
v -0.14899495 -0.17899495 -0.09000000 0.14901961 0.14901961 0.14901961
v -0.14899495 -0.17899495 0.09000000 0.14901961 0.14901961 0.14901961
v -0.12777983 -0.19640575 -0.09000000 0.14901961 0.14901961 0.14901961
v -0.12777983 -0.19640575 0.09000000 0.14901961 0.14901961 0.14901961
v -0.10357568 -0.20934313 -0.09000000 0.14901961 0.14901961 0.14901961
v -0.10357568 -0.20934313 0.09000000 0.14901961 0.14901961 0.14901961
v -0.07731265 -0.21730994 -0.09000000 0.14901961 0.14901961 0.14901961
v -0.07731265 -0.21730994 0.09000000 0.14901961 0.14901961 0.14901961
v -0.05000000 -0.22000000 -0.09000000 0.14901961 0.14901961 0.14901961
v -0.05000000 -0.22000000 0.09000000 0.14901961 0.14901961 0.14901961
v -0.02268735 -0.21730994 -0.09000000 0.14901961 0.14901961 0.14901961
v -0.02268735 -0.21730994 0.09000000 0.14901961 0.14901961 0.14901961
v 0.00357568 -0.20934313 -0.09000000 0.14901961 0.14901961 0.14901961
v 0.00357568 -0.20934313 0.09000000 0.14901961 0.14901961 0.14901961
v 0.02777983 -0.19640575 -0.09000000 0.14901961 0.14901961 0.14901961
v 0.02777983 -0.19640575 0.09000000 0.14901961 0.14901961 0.14901961
v 0.04899495 -0.17899495 -0.09000000 0.14901961 0.14901961 0.14901961
v 0.04899495 -0.17899495 0.09000000 0.14901961 0.14901961 0.14901961
v 0.06640575 -0.15777983 -0.09000000 0.14901961 0.14901961 0.14901961
v 0.06640575 -0.15777983 0.09000000 0.14901961 0.14901961 0.14901961
v 0.07934313 -0.13357568 -0.09000000 0.14901961 0.14901961 0.14901961
v 0.07934313 -0.13357568 0.09000000 0.14901961 0.14901961 0.14901961
v 0.08730994 -0.10731265 -0.09000000 0.14901961 0.14901961 0.14901961
v 0.08730994 -0.10731265 0.09000000 0.14901961 0.14901961 0.14901961
v -0.24000000 -0.22000000 0.16000000 0.40000000 0.34901961 0.29803922
v -0.24000000 -0.22000000 0.28000000 0.40000000 0.34901961 0.29803922
v -0.24000000 0.12000000 0.16000000 0.40000000 0.34901961 0.29803922
v -0.24000000 0.12000000 0.28000000 0.40000000 0.34901961 0.29803922
v 0.08000000 -0.22000000 0.16000000 0.40000000 0.34901961 0.29803922
v 0.08000000 -0.22000000 0.28000000 0.40000000 0.34901961 0.29803922
v 0.08000000 0.12000000 0.16000000 0.40000000 0.34901961 0.29803922
v 0.08000000 0.12000000 0.28000000 0.40000000 0.34901961 0.29803922
v -0.15000000 -0.33000000 -0.12000000 0.44705882 0.40000000 0.34901961
v -0.15000000 -0.33000000 0.28000000 0.44705882 0.40000000 0.34901961
v -0.15000000 -0.31000000 -0.12000000 0.44705882 0.40000000 0.34901961
v -0.15000000 -0.31000000 0.28000000 0.44705882 0.40000000 0.34901961
v 0.15000000 -0.33000000 -0.12000000 0.44705882 0.40000000 0.34901961
v 0.15000000 -0.33000000 0.28000000 0.44705882 0.40000000 0.34901961
v 0.15000000 -0.31000000 -0.12000000 0.44705882 0.40000000 0.34901961
v 0.15000000 -0.31000000 0.28000000 0.44705882 0.40000000 0.34901961
f 2 4 1
f 5 2 1
f 1 4 3
f 3 5 1
f 2 8 4
f 6 2 5
f 6 8 2
f 4 8 3
f 7 5 3
f 3 8 7
f 7 6 5
f 8 6 7
f 10 12 9
f 13 10 9
f 9 12 11
f 11 13 9
f 10 16 12
f 14 10 13
f 14 16 10
f 12 16 11
f 15 13 11
f 11 16 15
f 15 14 13
f 16 14 15
f 18 17 21
f 18 21 19
f 19 21 22
f 19 22 20
f 21 17 23
f 21 23 22
f 22 23 24
f 22 24 20
f 23 17 25
f 23 25 24
f 24 25 26
f 24 26 20
f 25 17 27
f 25 27 26
f 26 27 28
f 26 28 20
f 27 17 29
f 27 29 28
f 28 29 30
f 28 30 20
f 29 17 31
f 29 31 30
f 30 31 32
f 30 32 20
f 31 17 33
f 31 33 32
f 32 33 34
f 32 34 20
f 33 17 35
f 33 35 34
f 34 35 36
f 34 36 20
f 35 17 37
f 35 37 36
f 36 37 38
f 36 38 20
f 37 17 39
f 37 39 38
f 38 39 40
f 38 40 20
f 39 17 41
f 39 41 40
f 40 41 42
f 40 42 20
f 41 17 43
f 41 43 42
f 42 43 44
f 42 44 20
f 43 17 45
f 43 45 44
f 44 45 46
f 44 46 20
f 45 17 47
f 45 47 46
f 46 47 48
f 46 48 20
f 47 17 49
f 47 49 48
f 48 49 50
f 48 50 20
f 49 17 51
f 49 51 50
f 50 51 52
f 50 52 20
f 51 17 53
f 51 53 52
f 52 53 54
f 52 54 20
f 53 17 55
f 53 55 54
f 54 55 56
f 54 56 20
f 55 17 57
f 55 57 56
f 56 57 58
f 56 58 20
f 57 17 59
f 57 59 58
f 58 59 60
f 58 60 20
f 59 17 61
f 59 61 60
f 60 61 62
f 60 62 20
f 61 17 63
f 61 63 62
f 62 63 64
f 62 64 20
f 63 17 65
f 63 65 64
f 64 65 66
f 64 66 20
f 65 17 67
f 65 67 66
f 66 67 68
f 66 68 20
f 67 17 69
f 67 69 68
f 68 69 70
f 68 70 20
f 69 17 71
f 69 71 70
f 70 71 72
f 70 72 20
f 71 17 73
f 71 73 72
f 72 73 74
f 72 74 20
f 73 17 75
f 73 75 74
f 74 75 76
f 74 76 20
f 75 17 77
f 75 77 76
f 76 77 78
f 76 78 20
f 77 17 79
f 77 79 78
f 78 79 80
f 78 80 20
f 79 17 81
f 79 81 80
f 80 81 82
f 80 82 20
f 81 17 18
f 81 18 82
f 82 18 19
f 82 19 20
f 84 86 83
f 87 84 83
f 83 86 85
f 85 87 83
f 84 90 86
f 88 84 87
f 88 90 84
f 86 90 85
f 89 87 85
f 85 90 89
f 89 88 87
f 90 88 89
f 92 94 91
f 95 92 91
f 91 94 93
f 93 95 91
f 92 98 94
f 96 92 95
f 96 98 92
f 94 98 93
f 97 95 93
f 93 98 97
f 97 96 95
f 98 96 97

