# https://github.com/mikedh/trimesh
v -0.16380000 -0.03120000 -0.18720000 0.84705882 0.84705882 0.89803922
v -0.16380000 -0.03120000 0.18720000 0.84705882 0.84705882 0.89803922
v -0.16380000 0.21840000 -0.18720000 0.84705882 0.84705882 0.89803922
v -0.16380000 0.21840000 0.18720000 0.84705882 0.84705882 0.89803922
v 0.16380000 -0.03120000 -0.18720000 0.84705882 0.84705882 0.89803922
v 0.16380000 -0.03120000 0.18720000 0.84705882 0.84705882 0.89803922
v 0.16380000 0.21840000 -0.18720000 0.84705882 0.84705882 0.89803922
v 0.16380000 0.21840000 0.18720000 0.84705882 0.84705882 0.89803922
v -0.12920000 -0.32760000 -0.09450000 0.84705882 0.84705882 0.89803922
v -0.12920000 -0.32760000 0.33450000 0.84705882 0.84705882 0.89803922
v -0.12920000 -0.10920000 -0.09450000 0.84705882 0.84705882 0.89803922
v -0.12920000 -0.10920000 0.33450000 0.84705882 0.84705882 0.89803922
v 0.08920000 -0.32760000 -0.09450000 0.84705882 0.84705882 0.89803922
v 0.08920000 -0.32760000 0.33450000 0.84705882 0.84705882 0.89803922
v 0.08920000 -0.10920000 -0.09450000 0.84705882 0.84705882 0.89803922
v 0.08920000 -0.10920000 0.33450000 0.84705882 0.84705882 0.89803922
v -0.05000000 -0.08000000 -0.09000000 0.14901961 0.14901961 0.14901961
v 0.05920000 -0.08000000 -0.09000000 0.14901961 0.14901961 0.14901961
v 0.05920000 -0.08000000 0.09000000 0.14901961 0.14901961 0.14901961
v -0.05000000 -0.08000000 0.09000000 0.14901961 0.14901961 0.14901961
v 0.05710175 -0.05869614 -0.09000000 0.14901961 0.14901961 0.14901961
v 0.05710175 -0.05869614 0.09000000 0.14901961 0.14901961 0.14901961
v 0.05088764 -0.03821097 -0.09000000 0.14901961 0.14901961 0.14901961
v 0.05088764 -0.03821097 0.09000000 0.14901961 0.14901961 0.14901961
v 0.04079648 -0.01933173 -0.09000000 0.14901961 0.14901961 0.14901961
v 0.04079648 -0.01933173 0.09000000 0.14901961 0.14901961 0.14901961
v 0.02721606 -0.00278394 -0.09000000 0.14901961 0.14901961 0.14901961
v 0.02721606 -0.00278394 0.09000000 0.14901961 0.14901961 0.14901961
v 0.01066827 0.01079648 -0.09000000 0.14901961 0.14901961 0.14901961
v 0.01066827 0.01079648 0.09000000 0.14901961 0.14901961 0.14901961
v -0.00821097 0.02088764 -0.09000000 0.14901961 0.14901961 0.14901961
v -0.00821097 0.02088764 0.09000000 0.14901961 0.14901961 0.14901961
v -0.02869614 0.02710175 -0.09000000 0.14901961 0.14901961 0.14901961
v -0.02869614 0.02710175 0.09000000 0.14901961 0.14901961 0.14901961
v -0.05000000 0.02920000 -0.09000000 0.14901961 0.14901961 0.14901961
v -0.05000000 0.02920000 0.09000000 0.14901961 0.14901961 0.14901961
v -0.07130386 0.02710175 -0.09000000 0.14901961 0.14901961 0.14901961
v -0.07130386 0.02710175 0.09000000 0.14901961 0.14901961 0.14901961
v -0.09178903 0.02088764 -0.09000000 0.14901961 0.14901961 0.14901961
v -0.09178903 0.02088764 0.09000000 0.14901961 0.14901961 0.14901961
v -0.11066827 0.01079648 -0.09000000 0.14901961 0.14901961 0.14901961
v -0.11066827 0.01079648 0.09000000 0.14901961 0.14901961 0.14901961
v -0.12721606 -0.00278394 -0.09000000 0.14901961 0.14901961 0.14901961
v -0.12721606 -0.00278394 0.09000000 0.14901961 0.14901961 0.14901961
v -0.14079648 -0.01933173 -0.09000000 0.14901961 0.14901961 0.14901961
v -0.14079648 -0.01933173 0.09000000 0.14901961 0.14901961 0.14901961
v -0.15088764 -0.03821097 -0.09000000 0.14901961 0.14901961 0.14901961
v -0.15088764 -0.03821097 0.09000000 0.14901961 0.14901961 0.14901961
v -0.15710175 -0.05869614 -0.09000000 0.14901961 0.14901961 0.14901961
v -0.15710175 -0.05869614 0.09000000 0.14901961 0.14901961 0.14901961
v -0.15920000 -0.08000000 -0.09000000 0.14901961 0.14901961 0.14901961
v -0.15920000 -0.08000000 0.09000000 0.14901961 0.14901961 0.14901961
v -0.15710175 -0.10130386 -0.09000000 0.14901961 0.14901961 0.14901961
v -0.15710175 -0.10130386 0.09000000 0.14901961 0.14901961 0.14901961
v -0.15088764 -0.12178903 -0.09000000 0.14901961 0.14901961 0.14901961
v -0.15088764 -0.12178903 0.09000000 0.14901961 0.14901961 0.14901961
v -0.14079648 -0.14066827 -0.09000000 0.14901961 0.14901961 0.14901961
v -0.14079648 -0.14066827 0.09000000 0.14901961 0.14901961 0.14901961
v -0.12721606 -0.15721606 -0.09000000 0.14901961 0.14901961 0.14901961
v -0.12721606 -0.15721606 0.09000000 0.14901961 0.14901961 0.14901961
v -0.11066827 -0.17079648 -0.09000000 0.14901961 0.14901961 0.14901961
v -0.11066827 -0.17079648 0.09000000 0.14901961 0.14901961 0.14901961
v -0.09178903 -0.18088764 -0.09000000 0.14901961 0.14901961 0.14901961
v -0.09178903 -0.18088764 0.09000000 0.14901961 0.14901961 0.14901961
v -0.07130386 -0.18710175 -0.09000000 0.14901961 0.14901961 0.14901961
v -0.07130386 -0.18710175 0.09000000 0.14901961 0.14901961 0.14901961
v -0.05000000 -0.18920000 -0.09000000 0.14901961 0.14901961 0.14901961
v -0.05000000 -0.18920000 0.09000000 0.14901961 0.14901961 0.14901961
v -0.02869614 -0.18710175 -0.09000000 0.14901961 0.14901961 0.14901961
v -0.02869614 -0.18710175 0.09000000 0.14901961 0.14901961 0.14901961
v -0.00821097 -0.18088764 -0.09000000 0.14901961 0.14901961 0.14901961
v -0.00821097 -0.18088764 0.09000000 0.14901961 0.14901961 0.14901961
v 0.01066827 -0.17079648 -0.09000000 0.14901961 0.14901961 0.14901961
v 0.01066827 -0.17079648 0.09000000 0.14901961 0.14901961 0.14901961
v 0.02721606 -0.15721606 -0.09000000 0.14901961 0.14901961 0.14901961
v 0.02721606 -0.15721606 0.09000000 0.14901961 0.14901961 0.14901961
v 0.04079648 -0.14066827 -0.09000000 0.14901961 0.14901961 0.14901961
v 0.04079648 -0.14066827 0.09000000 0.14901961 0.14901961 0.14901961
v 0.05088764 -0.12178903 -0.09000000 0.14901961 0.14901961 0.14901961
v 0.05088764 -0.12178903 0.09000000 0.14901961 0.14901961 0.14901961
v 0.05710175 -0.10130386 -0.09000000 0.14901961 0.14901961 0.14901961
v 0.05710175 -0.10130386 0.09000000 0.14901961 0.14901961 0.14901961
v -0.12000000 -0.20000000 -0.14500000 0.14901961 0.14901961 0.14901961
v -0.08000000 -0.20000000 -0.14500000 0.14901961 0.14901961 0.14901961
v -0.08000000 -0.20000000 0.30500000 0.14901961 0.14901961 0.14901961
v -0.12000000 -0.20000000 0.30500000 0.14901961 0.14901961 0.14901961
v -0.08076859 -0.19219639 -0.14500000 0.14901961 0.14901961 0.14901961
v -0.08076859 -0.19219639 0.30500000 0.14901961 0.14901961 0.14901961
v -0.08304482 -0.18469266 -0.14500000 0.14901961 0.14901961 0.14901961
v -0.08304482 -0.18469266 0.30500000 0.14901961 0.14901961 0.14901961
v -0.08674122 -0.17777719 -0.14500000 0.14901961 0.14901961 0.14901961
v -0.08674122 -0.17777719 0.30500000 0.14901961 0.14901961 0.14901961
v -0.09171573 -0.17171573 -0.14500000 0.14901961 0.14901961 0.14901961
v -0.09171573 -0.17171573 0.30500000 0.14901961 0.14901961 0.14901961
v -0.09777719 -0.16674122 -0.14500000 0.14901961 0.14901961 0.14901961
v -0.09777719 -0.16674122 0.30500000 0.14901961 0.14901961 0.14901961
v -0.10469266 -0.16304482 -0.14500000 0.14901961 0.14901961 0.14901961
v -0.10469266 -0.16304482 0.30500000 0.14901961 0.14901961 0.14901961
v -0.11219639 -0.16076859 -0.14500000 0.14901961 0.14901961 0.14901961
v -0.11219639 -0.16076859 0.30500000 0.14901961 0.14901961 0.14901961
v -0.12000000 -0.16000000 -0.14500000 0.14901961 0.14901961 0.14901961
v -0.12000000 -0.16000000 0.30500000 0.14901961 0.14901961 0.14901961
v -0.12780361 -0.16076859 -0.14500000 0.14901961 0.14901961 0.14901961
v -0.12780361 -0.16076859 0.30500000 0.14901961 0.14901961 0.14901961
v -0.13530734 -0.16304482 -0.14500000 0.14901961 0.14901961 0.14901961
v -0.13530734 -0.16304482 0.30500000 0.14901961 0.14901961 0.14901961
v -0.14222281 -0.16674122 -0.14500000 0.14901961 0.14901961 0.14901961
v -0.14222281 -0.16674122 0.30500000 0.14901961 0.14901961 0.14901961
v -0.14828427 -0.17171573 -0.14500000 0.14901961 0.14901961 0.14901961
v -0.14828427 -0.17171573 0.30500000 0.14901961 0.14901961 0.14901961
v -0.15325878 -0.17777719 -0.14500000 0.14901961 0.14901961 0.14901961
v -0.15325878 -0.17777719 0.30500000 0.14901961 0.14901961 0.14901961
v -0.15695518 -0.18469266 -0.14500000 0.14901961 0.14901961 0.14901961
v -0.15695518 -0.18469266 0.30500000 0.14901961 0.14901961 0.14901961
v -0.15923141 -0.19219639 -0.14500000 0.14901961 0.14901961 0.14901961
v -0.15923141 -0.19219639 0.30500000 0.14901961 0.14901961 0.14901961
v -0.16000000 -0.20000000 -0.14500000 0.14901961 0.14901961 0.14901961
v -0.16000000 -0.20000000 0.30500000 0.14901961 0.14901961 0.14901961
v -0.15923141 -0.20780361 -0.14500000 0.14901961 0.14901961 0.14901961
v -0.15923141 -0.20780361 0.30500000 0.14901961 0.14901961 0.14901961
v -0.15695518 -0.21530734 -0.14500000 0.14901961 0.14901961 0.14901961
v -0.15695518 -0.21530734 0.30500000 0.14901961 0.14901961 0.14901961
v -0.15325878 -0.22222281 -0.14500000 0.14901961 0.14901961 0.14901961
v -0.15325878 -0.22222281 0.30500000 0.14901961 0.14901961 0.14901961
v -0.14828427 -0.22828427 -0.14500000 0.14901961 0.14901961 0.14901961
v -0.14828427 -0.22828427 0.30500000 0.14901961 0.14901961 0.14901961
v -0.14222281 -0.23325878 -0.14500000 0.14901961 0.14901961 0.14901961
v -0.14222281 -0.23325878 0.30500000 0.14901961 0.14901961 0.14901961
v -0.13530734 -0.23695518 -0.14500000 0.14901961 0.14901961 0.14901961
v -0.13530734 -0.23695518 0.30500000 0.14901961 0.14901961 0.14901961
v -0.12780361 -0.23923141 -0.14500000 0.14901961 0.14901961 0.14901961
v -0.12780361 -0.23923141 0.30500000 0.14901961 0.14901961 0.14901961
v -0.12000000 -0.24000000 -0.14500000 0.14901961 0.14901961 0.14901961
v -0.12000000 -0.24000000 0.30500000 0.14901961 0.14901961 0.14901961
v -0.11219639 -0.23923141 -0.14500000 0.14901961 0.14901961 0.14901961
v -0.11219639 -0.23923141 0.30500000 0.14901961 0.14901961 0.14901961
v -0.10469266 -0.23695518 -0.14500000 0.14901961 0.14901961 0.14901961
v -0.10469266 -0.23695518 0.30500000 0.14901961 0.14901961 0.14901961
v -0.09777719 -0.23325878 -0.14500000 0.14901961 0.14901961 0.14901961
v -0.09777719 -0.23325878 0.30500000 0.14901961 0.14901961 0.14901961
v -0.09171573 -0.22828427 -0.14500000 0.14901961 0.14901961 0.14901961
v -0.09171573 -0.22828427 0.30500000 0.14901961 0.14901961 0.14901961
v -0.08674122 -0.22222281 -0.14500000 0.14901961 0.14901961 0.14901961
v -0.08674122 -0.22222281 0.30500000 0.14901961 0.14901961 0.14901961
v -0.08304482 -0.21530734 -0.14500000 0.14901961 0.14901961 0.14901961
v -0.08304482 -0.21530734 0.30500000 0.14901961 0.14901961 0.14901961
v -0.08076859 -0.20780361 -0.14500000 0.14901961 0.14901961 0.14901961
v -0.08076859 -0.20780361 0.30500000 0.14901961 0.14901961 0.14901961
f 2 4 1
f 5 2 1
f 1 4 3
f 3 5 1
f 2 8 4
f 6 2 5
f 6 8 2
f 4 8 3
f 7 5 3
f 3 8 7
f 7 6 5
f 8 6 7
f 10 12 9
f 13 10 9
f 9 12 11
f 11 13 9
f 10 16 12
f 14 10 13
f 14 16 10
f 12 16 11
f 15 13 11
f 11 16 15
f 15 14 13
f 16 14 15
f 18 17 21
f 18 21 19
f 19 21 22
f 19 22 20
f 21 17 23
f 21 23 22
f 22 23 24
f 22 24 20
f 23 17 25
f 23 25 24
f 24 25 26
f 24 26 20
f 25 17 27
f 25 27 26
f 26 27 28
f 26 28 20
f 27 17 29
f 27 29 28
f 28 29 30
f 28 30 20
f 29 17 31
f 29 31 30
f 30 31 32
f 30 32 20
f 31 17 33
f 31 33 32
f 32 33 34
f 32 34 20
f 33 17 35
f 33 35 34
f 34 35 36
f 34 36 20
f 35 17 37
f 35 37 36
f 36 37 38
f 36 38 20
f 37 17 39
f 37 39 38
f 38 39 40
f 38 40 20
f 39 17 41
f 39 41 40
f 40 41 42
f 40 42 20
f 41 17 43
f 41 43 42
f 42 43 44
f 42 44 20
f 43 17 45
f 43 45 44
f 44 45 46
f 44 46 20
f 45 17 47
f 45 47 46
f 46 47 48
f 46 48 20
f 47 17 49
f 47 49 48
f 48 49 50
f 48 50 20
f 49 17 51
f 49 51 50
f 50 51 52
f 50 52 20
f 51 17 53
f 51 53 52
f 52 53 54
f 52 54 20
f 53 17 55
f 53 55 54
f 54 55 56
f 54 56 20
f 55 17 57
f 55 57 56
f 56 57 58
f 56 58 20
f 57 17 59
f 57 59 58
f 58 59 60
f 58 60 20
f 59 17 61
f 59 61 60
f 60 61 62
f 60 62 20
f 61 17 63
f 61 63 62
f 62 63 64
f 62 64 20
f 63 17 65
f 63 65 64
f 64 65 66
f 64 66 20
f 65 17 67
f 65 67 66
f 66 67 68
f 66 68 20
f 67 17 69
f 67 69 68
f 68 69 70
f 68 70 20
f 69 17 71
f 69 71 70
f 70 71 72
f 70 72 20
f 71 17 73
f 71 73 72
f 72 73 74
f 72 74 20
f 73 17 75
f 73 75 74
f 74 75 76
f 74 76 20
f 75 17 77
f 75 77 76
f 76 77 78
f 76 78 20
f 77 17 79
f 77 79 78
f 78 79 80
f 78 80 20
f 79 17 81
f 79 81 80
f 80 81 82
f 80 82 20
f 81 17 18
f 81 18 82
f 82 18 19
f 82 19 20
f 84 83 87
f 84 87 85
f 85 87 88
f 85 88 86
f 87 83 89
f 87 89 88
f 88 89 90
f 88 90 86
f 89 83 91
f 89 91 90
f 90 91 92
f 90 92 86
f 91 83 93
f 91 93 92
f 92 93 94
f 92 94 86
f 93 83 95
f 93 95 94
f 94 95 96
f 94 96 86
f 95 83 97
f 95 97 96
f 96 97 98
f 96 98 86
f 97 83 99
f 97 99 98
f 98 99 100
f 98 100 86
f 99 83 101
f 99 101 100
f 100 101 102
f 100 102 86
f 101 83 103
f 101 103 102
f 102 103 104
f 102 104 86
f 103 83 105
f 103 105 104
f 104 105 106
f 104 106 86
f 105 83 107
f 105 107 106
f 106 107 108
f 106 108 86
f 107 83 109
f 107 109 108
f 108 109 110
f 108 110 86
f 109 83 111
f 109 111 110
f 110 111 112
f 110 112 86
f 111 83 113
f 111 113 112
f 112 113 114
f 112 114 86
f 113 83 115
f 113 115 114
f 114 115 116
f 114 116 86
f 115 83 117
f 115 117 116
f 116 117 118
f 116 118 86
f 117 83 119
f 117 119 118
f 118 119 120
f 118 120 86
f 119 83 121
f 119 121 120
f 120 121 122
f 120 122 86
f 121 83 123
f 121 123 122
f 122 123 124
f 122 124 86
f 123 83 125
f 123 125 124
f 124 125 126
f 124 126 86
f 125 83 127
f 125 127 126
f 126 127 128
f 126 128 86
f 127 83 129
f 127 129 128
f 128 129 130
f 128 130 86
f 129 83 131
f 129 131 130
f 130 131 132
f 130 132 86
f 131 83 133
f 131 133 132
f 132 133 134
f 132 134 86
f 133 83 135
f 133 135 134
f 134 135 136
f 134 136 86
f 135 83 137
f 135 137 136
f 136 137 138
f 136 138 86
f 137 83 139
f 137 139 138
f 138 139 140
f 138 140 86
f 139 83 141
f 139 141 140
f 140 141 142
f 140 142 86
f 141 83 143
f 141 143 142
f 142 143 144
f 142 144 86
f 143 83 145
f 143 145 144
f 144 145 146
f 144 146 86
f 145 83 147
f 145 147 146
f 146 147 148
f 146 148 86
f 147 83 84
f 147 84 148
f 148 84 85
f 148 85 86

