# https://github.com/mikedh/trimesh
v -0.27500000 -0.24750000 -0.27500000 0.89803922 0.20000000 0.24705882
v -0.27500000 -0.24750000 0.27500000 0.89803922 0.20000000 0.24705882
v -0.27500000 0.24750000 -0.27500000 0.89803922 0.20000000 0.24705882
v -0.27500000 0.24750000 0.27500000 0.89803922 0.20000000 0.24705882
v 0.27500000 -0.24750000 -0.27500000 0.89803922 0.20000000 0.24705882
v 0.27500000 -0.24750000 0.27500000 0.89803922 0.20000000 0.24705882
v 0.27500000 0.24750000 -0.27500000 0.89803922 0.20000000 0.24705882
v 0.27500000 0.24750000 0.27500000 0.89803922 0.20000000 0.24705882
v -0.23100000 -0.06600000 0.27700000 0.89803922 0.20000000 0.20000000
v -0.23100000 -0.06600000 0.31700000 0.89803922 0.20000000 0.20000000
v -0.23100000 0.06600000 0.27700000 0.89803922 0.20000000 0.20000000
v -0.23100000 0.06600000 0.31700000 0.89803922 0.20000000 0.20000000
v 0.23100000 -0.06600000 0.27700000 0.89803922 0.20000000 0.20000000
v 0.23100000 -0.06600000 0.31700000 0.89803922 0.20000000 0.20000000
v 0.23100000 0.06600000 0.27700000 0.89803922 0.20000000 0.20000000
v 0.23100000 0.06600000 0.31700000 0.89803922 0.20000000 0.20000000
v 0.22000000 0.02500000 -0.03000000 0.89803922 0.14901961 0.14901961
v 0.22000000 0.02500000 0.03000000 0.89803922 0.14901961 0.14901961
v 0.22000000 0.37500000 -0.03000000 0.89803922 0.14901961 0.14901961
v 0.22000000 0.37500000 0.03000000 0.89803922 0.14901961 0.14901961
v 0.28000000 0.02500000 -0.03000000 0.89803922 0.14901961 0.14901961
v 0.28000000 0.02500000 0.03000000 0.89803922 0.14901961 0.14901961
v 0.28000000 0.37500000 -0.03000000 0.89803922 0.14901961 0.14901961
v 0.28000000 0.37500000 0.03000000 0.89803922 0.14901961 0.14901961
v -0.28000000 0.02500000 -0.03000000 0.89803922 0.14901961 0.14901961
v -0.28000000 0.02500000 0.03000000 0.89803922 0.14901961 0.14901961
v -0.28000000 0.37500000 -0.03000000 0.89803922 0.14901961 0.14901961
v -0.28000000 0.37500000 0.03000000 0.89803922 0.14901961 0.14901961
v -0.22000000 0.02500000 -0.03000000 0.89803922 0.14901961 0.14901961
v -0.22000000 0.02500000 0.03000000 0.89803922 0.14901961 0.14901961
v -0.22000000 0.37500000 -0.03000000 0.89803922 0.14901961 0.14901961
v -0.22000000 0.37500000 0.03000000 0.89803922 0.14901961 0.14901961
v -0.04000000 0.15000000 -0.33000000 0.89803922 0.09803922 0.09803922
v -0.04000000 0.15000000 -0.11000000 0.89803922 0.09803922 0.09803922
v -0.04000000 0.21000000 -0.33000000 0.89803922 0.09803922 0.09803922
v -0.04000000 0.21000000 -0.11000000 0.89803922 0.09803922 0.09803922
v 0.04000000 0.15000000 -0.33000000 0.89803922 0.09803922 0.09803922
v 0.04000000 0.15000000 -0.11000000 0.89803922 0.09803922 0.09803922
v 0.04000000 0.21000000 -0.33000000 0.89803922 0.09803922 0.09803922
v 0.04000000 0.21000000 -0.11000000 0.89803922 0.09803922 0.09803922
f 2 4 1
f 5 2 1
f 1 4 3
f 3 5 1
f 2 8 4
f 6 2 5
f 6 8 2
f 4 8 3
f 7 5 3
f 3 8 7
f 7 6 5
f 8 6 7
f 10 12 9
f 13 10 9
f 9 12 11
f 11 13 9
f 10 16 12
f 14 10 13
f 14 16 10
f 12 16 11
f 15 13 11
f 11 16 15
f 15 14 13
f 16 14 15
f 18 20 17
f 21 18 17
f 17 20 19
f 19 21 17
f 18 24 20
f 22 18 21
f 22 24 18
f 20 24 19
f 23 21 19
f 19 24 23
f 23 22 21
f 24 22 23
f 26 28 25
f 29 26 25
f 25 28 27
f 27 29 25
f 26 32 28
f 30 26 29
f 30 32 26
f 28 32 27
f 31 29 27
f 27 32 31
f 31 30 29
f 32 30 31
f 34 36 33
f 37 34 33
f 33 36 35
f 35 37 33
f 34 40 36
f 38 34 37
f 38 40 34
f 36 40 35
f 39 37 35
f 35 40 39
f 39 38 37
f 40 38 39

