# https://github.com/mikedh/trimesh
v 0.00000000 0.43200000 -0.43875000 0.44705882 0.37647059 0.29803922
v 0.29700000 0.43200000 -0.43875000 0.44705882 0.37647059 0.29803922
v 0.29700000 0.43200000 0.43875000 0.44705882 0.37647059 0.29803922
v 0.00000000 0.43200000 0.43875000 0.44705882 0.37647059 0.29803922
v 0.29129323 0.48994183 -0.43875000 0.44705882 0.37647059 0.29803922
v 0.29129323 0.48994183 0.43875000 0.44705882 0.37647059 0.29803922
v 0.27439222 0.54565698 -0.43875000 0.44705882 0.37647059 0.29803922
v 0.27439222 0.54565698 0.43875000 0.44705882 0.37647059 0.29803922
v 0.24694647 0.59700436 -0.43875000 0.44705882 0.37647059 0.29803922
v 0.24694647 0.59700436 0.43875000 0.44705882 0.37647059 0.29803922
v 0.21001071 0.64201071 -0.43875000 0.44705882 0.37647059 0.29803922
v 0.21001071 0.64201071 0.43875000 0.44705882 0.37647059 0.29803922
v 0.16500436 0.67894647 -0.43875000 0.44705882 0.37647059 0.29803922
v 0.16500436 0.67894647 0.43875000 0.44705882 0.37647059 0.29803922
v 0.11365698 0.70639222 -0.43875000 0.44705882 0.37647059 0.29803922
v 0.11365698 0.70639222 0.43875000 0.44705882 0.37647059 0.29803922
v 0.05794183 0.72329323 -0.43875000 0.44705882 0.37647059 0.29803922
v 0.05794183 0.72329323 0.43875000 0.44705882 0.37647059 0.29803922
v 0.00000000 0.72900000 -0.43875000 0.44705882 0.37647059 0.29803922
v 0.00000000 0.72900000 0.43875000 0.44705882 0.37647059 0.29803922
v -0.05794183 0.72329323 -0.43875000 0.44705882 0.37647059 0.29803922
v -0.05794183 0.72329323 0.43875000 0.44705882 0.37647059 0.29803922
v -0.11365698 0.70639222 -0.43875000 0.44705882 0.37647059 0.29803922
v -0.11365698 0.70639222 0.43875000 0.44705882 0.37647059 0.29803922
v -0.16500436 0.67894647 -0.43875000 0.44705882 0.37647059 0.29803922
v -0.16500436 0.67894647 0.43875000 0.44705882 0.37647059 0.29803922
v -0.21001071 0.64201071 -0.43875000 0.44705882 0.37647059 0.29803922
v -0.21001071 0.64201071 0.43875000 0.44705882 0.37647059 0.29803922
v -0.24694647 0.59700436 -0.43875000 0.44705882 0.37647059 0.29803922
v -0.24694647 0.59700436 0.43875000 0.44705882 0.37647059 0.29803922
v -0.27439222 0.54565698 -0.43875000 0.44705882 0.37647059 0.29803922
v -0.27439222 0.54565698 0.43875000 0.44705882 0.37647059 0.29803922
v -0.29129323 0.48994183 -0.43875000 0.44705882 0.37647059 0.29803922
v -0.29129323 0.48994183 0.43875000 0.44705882 0.37647059 0.29803922
v -0.29700000 0.43200000 -0.43875000 0.44705882 0.37647059 0.29803922
v -0.29700000 0.43200000 0.43875000 0.44705882 0.37647059 0.29803922
v -0.29129323 0.37405817 -0.43875000 0.44705882 0.37647059 0.29803922
v -0.29129323 0.37405817 0.43875000 0.44705882 0.37647059 0.29803922
v -0.27439222 0.31834302 -0.43875000 0.44705882 0.37647059 0.29803922
v -0.27439222 0.31834302 0.43875000 0.44705882 0.37647059 0.29803922
v -0.24694647 0.26699564 -0.43875000 0.44705882 0.37647059 0.29803922
v -0.24694647 0.26699564 0.43875000 0.44705882 0.37647059 0.29803922
v -0.21001071 0.22198929 -0.43875000 0.44705882 0.37647059 0.29803922
v -0.21001071 0.22198929 0.43875000 0.44705882 0.37647059 0.29803922
v -0.16500436 0.18505353 -0.43875000 0.44705882 0.37647059 0.29803922
v -0.16500436 0.18505353 0.43875000 0.44705882 0.37647059 0.29803922
v -0.11365698 0.15760778 -0.43875000 0.44705882 0.37647059 0.29803922
v -0.11365698 0.15760778 0.43875000 0.44705882 0.37647059 0.29803922
v -0.05794183 0.14070677 -0.43875000 0.44705882 0.37647059 0.29803922
v -0.05794183 0.14070677 0.43875000 0.44705882 0.37647059 0.29803922
v -0.00000000 0.13500000 -0.43875000 0.44705882 0.37647059 0.29803922
v -0.00000000 0.13500000 0.43875000 0.44705882 0.37647059 0.29803922
v 0.05794183 0.14070677 -0.43875000 0.44705882 0.37647059 0.29803922
v 0.05794183 0.14070677 0.43875000 0.44705882 0.37647059 0.29803922
v 0.11365698 0.15760778 -0.43875000 0.44705882 0.37647059 0.29803922
v 0.11365698 0.15760778 0.43875000 0.44705882 0.37647059 0.29803922
v 0.16500436 0.18505353 -0.43875000 0.44705882 0.37647059 0.29803922
v 0.16500436 0.18505353 0.43875000 0.44705882 0.37647059 0.29803922
v 0.21001071 0.22198929 -0.43875000 0.44705882 0.37647059 0.29803922
v 0.21001071 0.22198929 0.43875000 0.44705882 0.37647059 0.29803922
v 0.24694647 0.26699564 -0.43875000 0.44705882 0.37647059 0.29803922
v 0.24694647 0.26699564 0.43875000 0.44705882 0.37647059 0.29803922
v 0.27439222 0.31834302 -0.43875000 0.44705882 0.37647059 0.29803922
v 0.27439222 0.31834302 0.43875000 0.44705882 0.37647059 0.29803922
v 0.29129323 0.37405817 -0.43875000 0.44705882 0.37647059 0.29803922
v 0.29129323 0.37405817 0.43875000 0.44705882 0.37647059 0.29803922
v -0.25650000 0.62100000 -0.13600000 0.44705882 0.37647059 0.29803922
v -0.25650000 0.62100000 0.29600000 0.44705882 0.37647059 0.29803922
v -0.25650000 0.86400000 -0.13600000 0.44705882 0.37647059 0.29803922
v -0.25650000 0.86400000 0.29600000 0.44705882 0.37647059 0.29803922
v 0.25650000 0.62100000 -0.13600000 0.44705882 0.37647059 0.29803922
v 0.25650000 0.62100000 0.29600000 0.44705882 0.37647059 0.29803922
v 0.25650000 0.86400000 -0.13600000 0.44705882 0.37647059 0.29803922
v 0.25650000 0.86400000 0.29600000 0.44705882 0.37647059 0.29803922
v -0.27000000 -0.14850000 -0.12150000 0.44705882 0.37647059 0.29803922
v -0.27000000 -0.14850000 0.39150000 0.44705882 0.37647059 0.29803922
v -0.27000000 0.14850000 -0.12150000 0.44705882 0.37647059 0.29803922
v -0.27000000 0.14850000 0.39150000 0.44705882 0.37647059 0.29803922
v 0.27000000 -0.14850000 -0.12150000 0.44705882 0.37647059 0.29803922
v 0.27000000 -0.14850000 0.39150000 0.44705882 0.37647059 0.29803922
v 0.27000000 0.14850000 -0.12150000 0.44705882 0.37647059 0.29803922
v 0.27000000 0.14850000 0.39150000 0.44705882 0.37647059 0.29803922
v 0.00000000 -0.43200000 -0.41850000 0.44705882 0.37647059 0.29803922
v 0.24300000 -0.43200000 -0.41850000 0.44705882 0.37647059 0.29803922
v 0.24300000 -0.43200000 0.41850000 0.44705882 0.37647059 0.29803922
v 0.00000000 -0.43200000 0.41850000 0.44705882 0.37647059 0.29803922
v 0.23833082 -0.38459305 -0.41850000 0.44705882 0.37647059 0.29803922
v 0.23833082 -0.38459305 0.41850000 0.44705882 0.37647059 0.29803922
v 0.22450273 -0.33900793 -0.41850000 0.44705882 0.37647059 0.29803922
v 0.22450273 -0.33900793 0.41850000 0.44705882 0.37647059 0.29803922
v 0.20204712 -0.29699643 -0.41850000 0.44705882 0.37647059 0.29803922
v 0.20204712 -0.29699643 0.41850000 0.44705882 0.37647059 0.29803922
v 0.17182695 -0.26017305 -0.41850000 0.44705882 0.37647059 0.29803922
v 0.17182695 -0.26017305 0.41850000 0.44705882 0.37647059 0.29803922
v 0.13500357 -0.22995288 -0.41850000 0.44705882 0.37647059 0.29803922
v 0.13500357 -0.22995288 0.41850000 0.44705882 0.37647059 0.29803922
v 0.09299207 -0.20749727 -0.41850000 0.44705882 0.37647059 0.29803922
v 0.09299207 -0.20749727 0.41850000 0.44705882 0.37647059 0.29803922
v 0.04740695 -0.19366918 -0.41850000 0.44705882 0.37647059 0.29803922
v 0.04740695 -0.19366918 0.41850000 0.44705882 0.37647059 0.29803922
v 0.00000000 -0.18900000 -0.41850000 0.44705882 0.37647059 0.29803922
v 0.00000000 -0.18900000 0.41850000 0.44705882 0.37647059 0.29803922
v -0.04740695 -0.19366918 -0.41850000 0.44705882 0.37647059 0.29803922
v -0.04740695 -0.19366918 0.41850000 0.44705882 0.37647059 0.29803922
v -0.09299207 -0.20749727 -0.41850000 0.44705882 0.37647059 0.29803922
v -0.09299207 -0.20749727 0.41850000 0.44705882 0.37647059 0.29803922
v -0.13500357 -0.22995288 -0.41850000 0.44705882 0.37647059 0.29803922
v -0.13500357 -0.22995288 0.41850000 0.44705882 0.37647059 0.29803922
v -0.17182695 -0.26017305 -0.41850000 0.44705882 0.37647059 0.29803922
v -0.17182695 -0.26017305 0.41850000 0.44705882 0.37647059 0.29803922
v -0.20204712 -0.29699643 -0.41850000 0.44705882 0.37647059 0.29803922
v -0.20204712 -0.29699643 0.41850000 0.44705882 0.37647059 0.29803922
v -0.22450273 -0.33900793 -0.41850000 0.44705882 0.37647059 0.29803922
v -0.22450273 -0.33900793 0.41850000 0.44705882 0.37647059 0.29803922
v -0.23833082 -0.38459305 -0.41850000 0.44705882 0.37647059 0.29803922
v -0.23833082 -0.38459305 0.41850000 0.44705882 0.37647059 0.29803922
v -0.24300000 -0.43200000 -0.41850000 0.44705882 0.37647059 0.29803922
v -0.24300000 -0.43200000 0.41850000 0.44705882 0.37647059 0.29803922
v -0.23833082 -0.47940695 -0.41850000 0.44705882 0.37647059 0.29803922
v -0.23833082 -0.47940695 0.41850000 0.44705882 0.37647059 0.29803922
v -0.22450273 -0.52499207 -0.41850000 0.44705882 0.37647059 0.29803922
v -0.22450273 -0.52499207 0.41850000 0.44705882 0.37647059 0.29803922
v -0.20204712 -0.56700357 -0.41850000 0.44705882 0.37647059 0.29803922
v -0.20204712 -0.56700357 0.41850000 0.44705882 0.37647059 0.29803922
v -0.17182695 -0.60382695 -0.41850000 0.44705882 0.37647059 0.29803922
v -0.17182695 -0.60382695 0.41850000 0.44705882 0.37647059 0.29803922
v -0.13500357 -0.63404712 -0.41850000 0.44705882 0.37647059 0.29803922
v -0.13500357 -0.63404712 0.41850000 0.44705882 0.37647059 0.29803922
v -0.09299207 -0.65650273 -0.41850000 0.44705882 0.37647059 0.29803922
v -0.09299207 -0.65650273 0.41850000 0.44705882 0.37647059 0.29803922
v -0.04740695 -0.67033082 -0.41850000 0.44705882 0.37647059 0.29803922
v -0.04740695 -0.67033082 0.41850000 0.44705882 0.37647059 0.29803922
v -0.00000000 -0.67500000 -0.41850000 0.44705882 0.37647059 0.29803922
v -0.00000000 -0.67500000 0.41850000 0.44705882 0.37647059 0.29803922
v 0.04740695 -0.67033082 -0.41850000 0.44705882 0.37647059 0.29803922
v 0.04740695 -0.67033082 0.41850000 0.44705882 0.37647059 0.29803922
v 0.09299207 -0.65650273 -0.41850000 0.44705882 0.37647059 0.29803922
v 0.09299207 -0.65650273 0.41850000 0.44705882 0.37647059 0.29803922
v 0.13500357 -0.63404712 -0.41850000 0.44705882 0.37647059 0.29803922
v 0.13500357 -0.63404712 0.41850000 0.44705882 0.37647059 0.29803922
v 0.17182695 -0.60382695 -0.41850000 0.44705882 0.37647059 0.29803922
v 0.17182695 -0.60382695 0.41850000 0.44705882 0.37647059 0.29803922
v 0.20204712 -0.56700357 -0.41850000 0.44705882 0.37647059 0.29803922
v 0.20204712 -0.56700357 0.41850000 0.44705882 0.37647059 0.29803922
v 0.22450273 -0.52499207 -0.41850000 0.44705882 0.37647059 0.29803922
v 0.22450273 -0.52499207 0.41850000 0.44705882 0.37647059 0.29803922
v 0.23833082 -0.47940695 -0.41850000 0.44705882 0.37647059 0.29803922
v 0.23833082 -0.47940695 0.41850000 0.44705882 0.37647059 0.29803922
v -0.30375000 -1.02600000 -0.25650000 0.20000000 0.20000000 0.21960784
v -0.30375000 -1.02600000 0.58050000 0.20000000 0.20000000 0.21960784
v -0.30375000 -0.81000000 -0.25650000 0.20000000 0.20000000 0.21960784
v -0.30375000 -0.81000000 0.58050000 0.20000000 0.20000000 0.21960784
v 0.30375000 -1.02600000 -0.25650000 0.20000000 0.20000000 0.21960784
v 0.30375000 -1.02600000 0.58050000 0.20000000 0.20000000 0.21960784
v 0.30375000 -0.81000000 -0.25650000 0.20000000 0.20000000 0.21960784
v 0.30375000 -0.81000000 0.58050000 0.20000000 0.20000000 0.21960784
v -0.28350000 0.08100000 0.04000000 0.17647059 0.17647059 0.17647059
v -0.28350000 0.08100000 0.32000000 0.17647059 0.17647059 0.17647059
v -0.28350000 0.24300000 0.04000000 0.17647059 0.17647059 0.17647059
v -0.28350000 0.24300000 0.32000000 0.17647059 0.17647059 0.17647059
v 0.28350000 0.08100000 0.04000000 0.17647059 0.17647059 0.17647059
v 0.28350000 0.08100000 0.32000000 0.17647059 0.17647059 0.17647059
v 0.28350000 0.24300000 0.04000000 0.17647059 0.17647059 0.17647059
v 0.28350000 0.24300000 0.32000000 0.17647059 0.17647059 0.17647059
v -0.32400000 -0.79650000 -0.07500000 0.14901961 0.14901961 0.14901961
v -0.32400000 -0.79650000 0.37500000 0.14901961 0.14901961 0.14901961
v -0.32400000 -0.68850000 -0.07500000 0.14901961 0.14901961 0.14901961
v -0.32400000 -0.68850000 0.37500000 0.14901961 0.14901961 0.14901961
v 0.32400000 -0.79650000 -0.07500000 0.14901961 0.14901961 0.14901961
v 0.32400000 -0.79650000 0.37500000 0.14901961 0.14901961 0.14901961
v 0.32400000 -0.68850000 -0.07500000 0.14901961 0.14901961 0.14901961
v 0.32400000 -0.68850000 0.37500000 0.14901961 0.14901961 0.14901961
f 2 1 5
f 2 5 3
f 3 5 6
f 3 6 4
f 5 1 7
f 5 7 6
f 6 7 8
f 6 8 4
f 7 1 9
f 7 9 8
f 8 9 10
f 8 10 4
f 9 1 11
f 9 11 10
f 10 11 12
f 10 12 4
f 11 1 13
f 11 13 12
f 12 13 14
f 12 14 4
f 13 1 15
f 13 15 14
f 14 15 16
f 14 16 4
f 15 1 17
f 15 17 16
f 16 17 18
f 16 18 4
f 17 1 19
f 17 19 18
f 18 19 20
f 18 20 4
f 19 1 21
f 19 21 20
f 20 21 22
f 20 22 4
f 21 1 23
f 21 23 22
f 22 23 24
f 22 24 4
f 23 1 25
f 23 25 24
f 24 25 26
f 24 26 4
f 25 1 27
f 25 27 26
f 26 27 28
f 26 28 4
f 27 1 29
f 27 29 28
f 28 29 30
f 28 30 4
f 29 1 31
f 29 31 30
f 30 31 32
f 30 32 4
f 31 1 33
f 31 33 32
f 32 33 34
f 32 34 4
f 33 1 35
f 33 35 34
f 34 35 36
f 34 36 4
f 35 1 37
f 35 37 36
f 36 37 38
f 36 38 4
f 37 1 39
f 37 39 38
f 38 39 40
f 38 40 4
f 39 1 41
f 39 41 40
f 40 41 42
f 40 42 4
f 41 1 43
f 41 43 42
f 42 43 44
f 42 44 4
f 43 1 45
f 43 45 44
f 44 45 46
f 44 46 4
f 45 1 47
f 45 47 46
f 46 47 48
f 46 48 4
f 47 1 49
f 47 49 48
f 48 49 50
f 48 50 4
f 49 1 51
f 49 51 50
f 50 51 52
f 50 52 4
f 51 1 53
f 51 53 52
f 52 53 54
f 52 54 4
f 53 1 55
f 53 55 54
f 54 55 56
f 54 56 4
f 55 1 57
f 55 57 56
f 56 57 58
f 56 58 4
f 57 1 59
f 57 59 58
f 58 59 60
f 58 60 4
f 59 1 61
f 59 61 60
f 60 61 62
f 60 62 4
f 61 1 63
f 61 63 62
f 62 63 64
f 62 64 4
f 63 1 65
f 63 65 64
f 64 65 66
f 64 66 4
f 65 1 2
f 65 2 66
f 66 2 3
f 66 3 4
f 68 70 67
f 71 68 67
f 67 70 69
f 69 71 67
f 68 74 70
f 72 68 71
f 72 74 68
f 70 74 69
f 73 71 69
f 69 74 73
f 73 72 71
f 74 72 73
f 76 78 75
f 79 76 75
f 75 78 77
f 77 79 75
f 76 82 78
f 80 76 79
f 80 82 76
f 78 82 77
f 81 79 77
f 77 82 81
f 81 80 79
f 82 80 81
f 84 83 87
f 84 87 85
f 85 87 88
f 85 88 86
f 87 83 89
f 87 89 88
f 88 89 90
f 88 90 86
f 89 83 91
f 89 91 90
f 90 91 92
f 90 92 86
f 91 83 93
f 91 93 92
f 92 93 94
f 92 94 86
f 93 83 95
f 93 95 94
f 94 95 96
f 94 96 86
f 95 83 97
f 95 97 96
f 96 97 98
f 96 98 86
f 97 83 99
f 97 99 98
f 98 99 100
f 98 100 86
f 99 83 101
f 99 101 100
f 100 101 102
f 100 102 86
f 101 83 103
f 101 103 102
f 102 103 104
f 102 104 86
f 103 83 105
f 103 105 104
f 104 105 106
f 104 106 86
f 105 83 107
f 105 107 106
f 106 107 108
f 106 108 86
f 107 83 109
f 107 109 108
f 108 109 110
f 108 110 86
f 109 83 111
f 109 111 110
f 110 111 112
f 110 112 86
f 111 83 113
f 111 113 112
f 112 113 114
f 112 114 86
f 113 83 115
f 113 115 114
f 114 115 116
f 114 116 86
f 115 83 117
f 115 117 116
f 116 117 118
f 116 118 86
f 117 83 119
f 117 119 118
f 118 119 120
f 118 120 86
f 119 83 121
f 119 121 120
f 120 121 122
f 120 122 86
f 121 83 123
f 121 123 122
f 122 123 124
f 122 124 86
f 123 83 125
f 123 125 124
f 124 125 126
f 124 126 86
f 125 83 127
f 125 127 126
f 126 127 128
f 126 128 86
f 127 83 129
f 127 129 128
f 128 129 130
f 128 130 86
f 129 83 131
f 129 131 130
f 130 131 132
f 130 132 86
f 131 83 133
f 131 133 132
f 132 133 134
f 132 134 86
f 133 83 135
f 133 135 134
f 134 135 136
f 134 136 86
f 135 83 137
f 135 137 136
f 136 137 138
f 136 138 86
f 137 83 139
f 137 139 138
f 138 139 140
f 138 140 86
f 139 83 141
f 139 141 140
f 140 141 142
f 140 142 86
f 141 83 143
f 141 143 142
f 142 143 144
f 142 144 86
f 143 83 145
f 143 145 144
f 144 145 146
f 144 146 86
f 145 83 147
f 145 147 146
f 146 147 148
f 146 148 86
f 147 83 84
f 147 84 148
f 148 84 85
f 148 85 86
f 150 152 149
f 153 150 149
f 149 152 151
f 151 153 149
f 150 156 152
f 154 150 153
f 154 156 150
f 152 156 151
f 155 153 151
f 151 156 155
f 155 154 153
f 156 154 155
f 158 160 157
f 161 158 157
f 157 160 159
f 159 161 157
f 158 164 160
f 162 158 161
f 162 164 158
f 160 164 159
f 163 161 159
f 159 164 163
f 163 162 161
f 164 162 163
f 166 168 165
f 169 166 165
f 165 168 167
f 167 169 165
f 166 172 168
f 170 166 169
f 170 172 166
f 168 172 167
f 171 169 167
f 167 172 171
f 171 170 169
f 172 170 171

