# https://github.com/mikedh/trimesh
v 0.00000000 0.25600000 -0.26000000 0.84705882 0.84705882 0.89803922
v 0.17600000 0.25600000 -0.26000000 0.84705882 0.84705882 0.89803922
v 0.17600000 0.25600000 0.26000000 0.84705882 0.84705882 0.89803922
v 0.00000000 0.25600000 0.26000000 0.84705882 0.84705882 0.89803922
v 0.17261821 0.29033590 -0.26000000 0.84705882 0.84705882 0.89803922
v 0.17261821 0.29033590 0.26000000 0.84705882 0.84705882 0.89803922
v 0.16260280 0.32335228 -0.26000000 0.84705882 0.84705882 0.89803922
v 0.16260280 0.32335228 0.26000000 0.84705882 0.84705882 0.89803922
v 0.14633865 0.35378036 -0.26000000 0.84705882 0.84705882 0.89803922
v 0.14633865 0.35378036 0.26000000 0.84705882 0.84705882 0.89803922
v 0.12445079 0.38045079 -0.26000000 0.84705882 0.84705882 0.89803922
v 0.12445079 0.38045079 0.26000000 0.84705882 0.84705882 0.89803922
v 0.09778036 0.40233865 -0.26000000 0.84705882 0.84705882 0.89803922
v 0.09778036 0.40233865 0.26000000 0.84705882 0.84705882 0.89803922
v 0.06735228 0.41860280 -0.26000000 0.84705882 0.84705882 0.89803922
v 0.06735228 0.41860280 0.26000000 0.84705882 0.84705882 0.89803922
v 0.03433590 0.42861821 -0.26000000 0.84705882 0.84705882 0.89803922
v 0.03433590 0.42861821 0.26000000 0.84705882 0.84705882 0.89803922
v 0.00000000 0.43200000 -0.26000000 0.84705882 0.84705882 0.89803922
v 0.00000000 0.43200000 0.26000000 0.84705882 0.84705882 0.89803922
v -0.03433590 0.42861821 -0.26000000 0.84705882 0.84705882 0.89803922
v -0.03433590 0.42861821 0.26000000 0.84705882 0.84705882 0.89803922
v -0.06735228 0.41860280 -0.26000000 0.84705882 0.84705882 0.89803922
v -0.06735228 0.41860280 0.26000000 0.84705882 0.84705882 0.89803922
v -0.09778036 0.40233865 -0.26000000 0.84705882 0.84705882 0.89803922
v -0.09778036 0.40233865 0.26000000 0.84705882 0.84705882 0.89803922
v -0.12445079 0.38045079 -0.26000000 0.84705882 0.84705882 0.89803922
v -0.12445079 0.38045079 0.26000000 0.84705882 0.84705882 0.89803922
v -0.14633865 0.35378036 -0.26000000 0.84705882 0.84705882 0.89803922
v -0.14633865 0.35378036 0.26000000 0.84705882 0.84705882 0.89803922
v -0.16260280 0.32335228 -0.26000000 0.84705882 0.84705882 0.89803922
v -0.16260280 0.32335228 0.26000000 0.84705882 0.84705882 0.89803922
v -0.17261821 0.29033590 -0.26000000 0.84705882 0.84705882 0.89803922
v -0.17261821 0.29033590 0.26000000 0.84705882 0.84705882 0.89803922
v -0.17600000 0.25600000 -0.26000000 0.84705882 0.84705882 0.89803922
v -0.17600000 0.25600000 0.26000000 0.84705882 0.84705882 0.89803922
v -0.17261821 0.22166410 -0.26000000 0.84705882 0.84705882 0.89803922
v -0.17261821 0.22166410 0.26000000 0.84705882 0.84705882 0.89803922
v -0.16260280 0.18864772 -0.26000000 0.84705882 0.84705882 0.89803922
v -0.16260280 0.18864772 0.26000000 0.84705882 0.84705882 0.89803922
v -0.14633865 0.15821964 -0.26000000 0.84705882 0.84705882 0.89803922
v -0.14633865 0.15821964 0.26000000 0.84705882 0.84705882 0.89803922
v -0.12445079 0.13154921 -0.26000000 0.84705882 0.84705882 0.89803922
v -0.12445079 0.13154921 0.26000000 0.84705882 0.84705882 0.89803922
v -0.09778036 0.10966135 -0.26000000 0.84705882 0.84705882 0.89803922
v -0.09778036 0.10966135 0.26000000 0.84705882 0.84705882 0.89803922
v -0.06735228 0.09339720 -0.26000000 0.84705882 0.84705882 0.89803922
v -0.06735228 0.09339720 0.26000000 0.84705882 0.84705882 0.89803922
v -0.03433590 0.08338179 -0.26000000 0.84705882 0.84705882 0.89803922
v -0.03433590 0.08338179 0.26000000 0.84705882 0.84705882 0.89803922
v -0.00000000 0.08000000 -0.26000000 0.84705882 0.84705882 0.89803922
v -0.00000000 0.08000000 0.26000000 0.84705882 0.84705882 0.89803922
v 0.03433590 0.08338179 -0.26000000 0.84705882 0.84705882 0.89803922
v 0.03433590 0.08338179 0.26000000 0.84705882 0.84705882 0.89803922
v 0.06735228 0.09339720 -0.26000000 0.84705882 0.84705882 0.89803922
v 0.06735228 0.09339720 0.26000000 0.84705882 0.84705882 0.89803922
v 0.09778036 0.10966135 -0.26000000 0.84705882 0.84705882 0.89803922
v 0.09778036 0.10966135 0.26000000 0.84705882 0.84705882 0.89803922
v 0.12445079 0.13154921 -0.26000000 0.84705882 0.84705882 0.89803922
v 0.12445079 0.13154921 0.26000000 0.84705882 0.84705882 0.89803922
v 0.14633865 0.15821964 -0.26000000 0.84705882 0.84705882 0.89803922
v 0.14633865 0.15821964 0.26000000 0.84705882 0.84705882 0.89803922
v 0.16260280 0.18864772 -0.26000000 0.84705882 0.84705882 0.89803922
v 0.16260280 0.18864772 0.26000000 0.84705882 0.84705882 0.89803922
v 0.17261821 0.22166410 -0.26000000 0.84705882 0.84705882 0.89803922
v 0.17261821 0.22166410 0.26000000 0.84705882 0.84705882 0.89803922
v -0.15200000 0.36800000 -0.04800000 0.84705882 0.84705882 0.89803922
v -0.15200000 0.36800000 0.20800000 0.84705882 0.84705882 0.89803922
v -0.15200000 0.51200000 -0.04800000 0.84705882 0.84705882 0.89803922
v -0.15200000 0.51200000 0.20800000 0.84705882 0.84705882 0.89803922
v 0.15200000 0.36800000 -0.04800000 0.84705882 0.84705882 0.89803922
v 0.15200000 0.36800000 0.20800000 0.84705882 0.84705882 0.89803922
v 0.15200000 0.51200000 -0.04800000 0.84705882 0.84705882 0.89803922
v 0.15200000 0.51200000 0.20800000 0.84705882 0.84705882 0.89803922
v -0.16000000 -0.08800000 -0.07200000 0.84705882 0.84705882 0.89803922
v -0.16000000 -0.08800000 0.23200000 0.84705882 0.84705882 0.89803922
v -0.16000000 0.08800000 -0.07200000 0.84705882 0.84705882 0.89803922
v -0.16000000 0.08800000 0.23200000 0.84705882 0.84705882 0.89803922
v 0.16000000 -0.08800000 -0.07200000 0.84705882 0.84705882 0.89803922
v 0.16000000 -0.08800000 0.23200000 0.84705882 0.84705882 0.89803922
v 0.16000000 0.08800000 -0.07200000 0.84705882 0.84705882 0.89803922
v 0.16000000 0.08800000 0.23200000 0.84705882 0.84705882 0.89803922
v 0.00000000 -0.25600000 -0.24800000 0.84705882 0.84705882 0.89803922
v 0.14400000 -0.25600000 -0.24800000 0.84705882 0.84705882 0.89803922
v 0.14400000 -0.25600000 0.24800000 0.84705882 0.84705882 0.89803922
v 0.00000000 -0.25600000 0.24800000 0.84705882 0.84705882 0.89803922
v 0.14123308 -0.22790699 -0.24800000 0.84705882 0.84705882 0.89803922
v 0.14123308 -0.22790699 0.24800000 0.84705882 0.84705882 0.89803922
v 0.13303865 -0.20089359 -0.24800000 0.84705882 0.84705882 0.89803922
v 0.13303865 -0.20089359 0.24800000 0.84705882 0.84705882 0.89803922
v 0.11973162 -0.17599789 -0.24800000 0.84705882 0.84705882 0.89803922
v 0.11973162 -0.17599789 0.24800000 0.84705882 0.84705882 0.89803922
v 0.10182338 -0.15417662 -0.24800000 0.84705882 0.84705882 0.89803922
v 0.10182338 -0.15417662 0.24800000 0.84705882 0.84705882 0.89803922
v 0.08000211 -0.13626838 -0.24800000 0.84705882 0.84705882 0.89803922
v 0.08000211 -0.13626838 0.24800000 0.84705882 0.84705882 0.89803922
v 0.05510641 -0.12296135 -0.24800000 0.84705882 0.84705882 0.89803922
v 0.05510641 -0.12296135 0.24800000 0.84705882 0.84705882 0.89803922
v 0.02809301 -0.11476692 -0.24800000 0.84705882 0.84705882 0.89803922
v 0.02809301 -0.11476692 0.24800000 0.84705882 0.84705882 0.89803922
v 0.00000000 -0.11200000 -0.24800000 0.84705882 0.84705882 0.89803922
v 0.00000000 -0.11200000 0.24800000 0.84705882 0.84705882 0.89803922
v -0.02809301 -0.11476692 -0.24800000 0.84705882 0.84705882 0.89803922
v -0.02809301 -0.11476692 0.24800000 0.84705882 0.84705882 0.89803922
v -0.05510641 -0.12296135 -0.24800000 0.84705882 0.84705882 0.89803922
v -0.05510641 -0.12296135 0.24800000 0.84705882 0.84705882 0.89803922
v -0.08000211 -0.13626838 -0.24800000 0.84705882 0.84705882 0.89803922
v -0.08000211 -0.13626838 0.24800000 0.84705882 0.84705882 0.89803922
v -0.10182338 -0.15417662 -0.24800000 0.84705882 0.84705882 0.89803922
v -0.10182338 -0.15417662 0.24800000 0.84705882 0.84705882 0.89803922
v -0.11973162 -0.17599789 -0.24800000 0.84705882 0.84705882 0.89803922
v -0.11973162 -0.17599789 0.24800000 0.84705882 0.84705882 0.89803922
v -0.13303865 -0.20089359 -0.24800000 0.84705882 0.84705882 0.89803922
v -0.13303865 -0.20089359 0.24800000 0.84705882 0.84705882 0.89803922
v -0.14123308 -0.22790699 -0.24800000 0.84705882 0.84705882 0.89803922
v -0.14123308 -0.22790699 0.24800000 0.84705882 0.84705882 0.89803922
v -0.14400000 -0.25600000 -0.24800000 0.84705882 0.84705882 0.89803922
v -0.14400000 -0.25600000 0.24800000 0.84705882 0.84705882 0.89803922
v -0.14123308 -0.28409301 -0.24800000 0.84705882 0.84705882 0.89803922
v -0.14123308 -0.28409301 0.24800000 0.84705882 0.84705882 0.89803922
v -0.13303865 -0.31110641 -0.24800000 0.84705882 0.84705882 0.89803922
v -0.13303865 -0.31110641 0.24800000 0.84705882 0.84705882 0.89803922
v -0.11973162 -0.33600211 -0.24800000 0.84705882 0.84705882 0.89803922
v -0.11973162 -0.33600211 0.24800000 0.84705882 0.84705882 0.89803922
v -0.10182338 -0.35782338 -0.24800000 0.84705882 0.84705882 0.89803922
v -0.10182338 -0.35782338 0.24800000 0.84705882 0.84705882 0.89803922
v -0.08000211 -0.37573162 -0.24800000 0.84705882 0.84705882 0.89803922
v -0.08000211 -0.37573162 0.24800000 0.84705882 0.84705882 0.89803922
v -0.05510641 -0.38903865 -0.24800000 0.84705882 0.84705882 0.89803922
v -0.05510641 -0.38903865 0.24800000 0.84705882 0.84705882 0.89803922
v -0.02809301 -0.39723308 -0.24800000 0.84705882 0.84705882 0.89803922
v -0.02809301 -0.39723308 0.24800000 0.84705882 0.84705882 0.89803922
v -0.00000000 -0.40000000 -0.24800000 0.84705882 0.84705882 0.89803922
v -0.00000000 -0.40000000 0.24800000 0.84705882 0.84705882 0.89803922
v 0.02809301 -0.39723308 -0.24800000 0.84705882 0.84705882 0.89803922
v 0.02809301 -0.39723308 0.24800000 0.84705882 0.84705882 0.89803922
v 0.05510641 -0.38903865 -0.24800000 0.84705882 0.84705882 0.89803922
v 0.05510641 -0.38903865 0.24800000 0.84705882 0.84705882 0.89803922
v 0.08000211 -0.37573162 -0.24800000 0.84705882 0.84705882 0.89803922
v 0.08000211 -0.37573162 0.24800000 0.84705882 0.84705882 0.89803922
v 0.10182338 -0.35782338 -0.24800000 0.84705882 0.84705882 0.89803922
v 0.10182338 -0.35782338 0.24800000 0.84705882 0.84705882 0.89803922
v 0.11973162 -0.33600211 -0.24800000 0.84705882 0.84705882 0.89803922
v 0.11973162 -0.33600211 0.24800000 0.84705882 0.84705882 0.89803922
v 0.13303865 -0.31110641 -0.24800000 0.84705882 0.84705882 0.89803922
v 0.13303865 -0.31110641 0.24800000 0.84705882 0.84705882 0.89803922
v 0.14123308 -0.28409301 -0.24800000 0.84705882 0.84705882 0.89803922
v 0.14123308 -0.28409301 0.24800000 0.84705882 0.84705882 0.89803922
v -0.18000000 -0.60800000 -0.15200000 0.20000000 0.20000000 0.21960784
v -0.18000000 -0.60800000 0.34400000 0.20000000 0.20000000 0.21960784
v -0.18000000 -0.48000000 -0.15200000 0.20000000 0.20000000 0.21960784
v -0.18000000 -0.48000000 0.34400000 0.20000000 0.20000000 0.21960784
v 0.18000000 -0.60800000 -0.15200000 0.20000000 0.20000000 0.21960784
v 0.18000000 -0.60800000 0.34400000 0.20000000 0.20000000 0.21960784
v 0.18000000 -0.48000000 -0.15200000 0.20000000 0.20000000 0.21960784
v 0.18000000 -0.48000000 0.34400000 0.20000000 0.20000000 0.21960784
v 0.11200000 -0.14400000 -0.15500000 0.14901961 0.14901961 0.14901961
v 0.16200000 -0.14400000 -0.15500000 0.14901961 0.14901961 0.14901961
v 0.16200000 -0.14400000 0.39500000 0.14901961 0.14901961 0.14901961
v 0.11200000 -0.14400000 0.39500000 0.14901961 0.14901961 0.14901961
v 0.16103926 -0.13424548 -0.15500000 0.14901961 0.14901961 0.14901961
v 0.16103926 -0.13424548 0.39500000 0.14901961 0.14901961 0.14901961
v 0.15819398 -0.12486583 -0.15500000 0.14901961 0.14901961 0.14901961
v 0.15819398 -0.12486583 0.39500000 0.14901961 0.14901961 0.14901961
v 0.15357348 -0.11622149 -0.15500000 0.14901961 0.14901961 0.14901961
v 0.15357348 -0.11622149 0.39500000 0.14901961 0.14901961 0.14901961
v 0.14735534 -0.10864466 -0.15500000 0.14901961 0.14901961 0.14901961
v 0.14735534 -0.10864466 0.39500000 0.14901961 0.14901961 0.14901961
v 0.13977851 -0.10242652 -0.15500000 0.14901961 0.14901961 0.14901961
v 0.13977851 -0.10242652 0.39500000 0.14901961 0.14901961 0.14901961
v 0.13113417 -0.09780602 -0.15500000 0.14901961 0.14901961 0.14901961
v 0.13113417 -0.09780602 0.39500000 0.14901961 0.14901961 0.14901961
v 0.12175452 -0.09496074 -0.15500000 0.14901961 0.14901961 0.14901961
v 0.12175452 -0.09496074 0.39500000 0.14901961 0.14901961 0.14901961
v 0.11200000 -0.09400000 -0.15500000 0.14901961 0.14901961 0.14901961
v 0.11200000 -0.09400000 0.39500000 0.14901961 0.14901961 0.14901961
v 0.10224548 -0.09496074 -0.15500000 0.14901961 0.14901961 0.14901961
v 0.10224548 -0.09496074 0.39500000 0.14901961 0.14901961 0.14901961
v 0.09286583 -0.09780602 -0.15500000 0.14901961 0.14901961 0.14901961
v 0.09286583 -0.09780602 0.39500000 0.14901961 0.14901961 0.14901961
v 0.08422149 -0.10242652 -0.15500000 0.14901961 0.14901961 0.14901961
v 0.08422149 -0.10242652 0.39500000 0.14901961 0.14901961 0.14901961
v 0.07664466 -0.10864466 -0.15500000 0.14901961 0.14901961 0.14901961
v 0.07664466 -0.10864466 0.39500000 0.14901961 0.14901961 0.14901961
v 0.07042652 -0.11622149 -0.15500000 0.14901961 0.14901961 0.14901961
v 0.07042652 -0.11622149 0.39500000 0.14901961 0.14901961 0.14901961
v 0.06580602 -0.12486583 -0.15500000 0.14901961 0.14901961 0.14901961
v 0.06580602 -0.12486583 0.39500000 0.14901961 0.14901961 0.14901961
v 0.06296074 -0.13424548 -0.15500000 0.14901961 0.14901961 0.14901961
v 0.06296074 -0.13424548 0.39500000 0.14901961 0.14901961 0.14901961
v 0.06200000 -0.14400000 -0.15500000 0.14901961 0.14901961 0.14901961
v 0.06200000 -0.14400000 0.39500000 0.14901961 0.14901961 0.14901961
v 0.06296074 -0.15375452 -0.15500000 0.14901961 0.14901961 0.14901961
v 0.06296074 -0.15375452 0.39500000 0.14901961 0.14901961 0.14901961
v 0.06580602 -0.16313417 -0.15500000 0.14901961 0.14901961 0.14901961
v 0.06580602 -0.16313417 0.39500000 0.14901961 0.14901961 0.14901961
v 0.07042652 -0.17177851 -0.15500000 0.14901961 0.14901961 0.14901961
v 0.07042652 -0.17177851 0.39500000 0.14901961 0.14901961 0.14901961
v 0.07664466 -0.17935534 -0.15500000 0.14901961 0.14901961 0.14901961
v 0.07664466 -0.17935534 0.39500000 0.14901961 0.14901961 0.14901961
v 0.08422149 -0.18557348 -0.15500000 0.14901961 0.14901961 0.14901961
v 0.08422149 -0.18557348 0.39500000 0.14901961 0.14901961 0.14901961
v 0.09286583 -0.19019398 -0.15500000 0.14901961 0.14901961 0.14901961
v 0.09286583 -0.19019398 0.39500000 0.14901961 0.14901961 0.14901961
v 0.10224548 -0.19303926 -0.15500000 0.14901961 0.14901961 0.14901961
v 0.10224548 -0.19303926 0.39500000 0.14901961 0.14901961 0.14901961
v 0.11200000 -0.19400000 -0.15500000 0.14901961 0.14901961 0.14901961
v 0.11200000 -0.19400000 0.39500000 0.14901961 0.14901961 0.14901961
v 0.12175452 -0.19303926 -0.15500000 0.14901961 0.14901961 0.14901961
v 0.12175452 -0.19303926 0.39500000 0.14901961 0.14901961 0.14901961
v 0.13113417 -0.19019398 -0.15500000 0.14901961 0.14901961 0.14901961
v 0.13113417 -0.19019398 0.39500000 0.14901961 0.14901961 0.14901961
v 0.13977851 -0.18557348 -0.15500000 0.14901961 0.14901961 0.14901961
v 0.13977851 -0.18557348 0.39500000 0.14901961 0.14901961 0.14901961
v 0.14735534 -0.17935534 -0.15500000 0.14901961 0.14901961 0.14901961
v 0.14735534 -0.17935534 0.39500000 0.14901961 0.14901961 0.14901961
v 0.15357348 -0.17177851 -0.15500000 0.14901961 0.14901961 0.14901961
v 0.15357348 -0.17177851 0.39500000 0.14901961 0.14901961 0.14901961
v 0.15819398 -0.16313417 -0.15500000 0.14901961 0.14901961 0.14901961
v 0.15819398 -0.16313417 0.39500000 0.14901961 0.14901961 0.14901961
v 0.16103926 -0.15375452 -0.15500000 0.14901961 0.14901961 0.14901961
v 0.16103926 -0.15375452 0.39500000 0.14901961 0.14901961 0.14901961
f 2 1 5
f 2 5 3
f 3 5 6
f 3 6 4
f 5 1 7
f 5 7 6
f 6 7 8
f 6 8 4
f 7 1 9
f 7 9 8
f 8 9 10
f 8 10 4
f 9 1 11
f 9 11 10
f 10 11 12
f 10 12 4
f 11 1 13
f 11 13 12
f 12 13 14
f 12 14 4
f 13 1 15
f 13 15 14
f 14 15 16
f 14 16 4
f 15 1 17
f 15 17 16
f 16 17 18
f 16 18 4
f 17 1 19
f 17 19 18
f 18 19 20
f 18 20 4
f 19 1 21
f 19 21 20
f 20 21 22
f 20 22 4
f 21 1 23
f 21 23 22
f 22 23 24
f 22 24 4
f 23 1 25
f 23 25 24
f 24 25 26
f 24 26 4
f 25 1 27
f 25 27 26
f 26 27 28
f 26 28 4
f 27 1 29
f 27 29 28
f 28 29 30
f 28 30 4
f 29 1 31
f 29 31 30
f 30 31 32
f 30 32 4
f 31 1 33
f 31 33 32
f 32 33 34
f 32 34 4
f 33 1 35
f 33 35 34
f 34 35 36
f 34 36 4
f 35 1 37
f 35 37 36
f 36 37 38
f 36 38 4
f 37 1 39
f 37 39 38
f 38 39 40
f 38 40 4
f 39 1 41
f 39 41 40
f 40 41 42
f 40 42 4
f 41 1 43
f 41 43 42
f 42 43 44
f 42 44 4
f 43 1 45
f 43 45 44
f 44 45 46
f 44 46 4
f 45 1 47
f 45 47 46
f 46 47 48
f 46 48 4
f 47 1 49
f 47 49 48
f 48 49 50
f 48 50 4
f 49 1 51
f 49 51 50
f 50 51 52
f 50 52 4
f 51 1 53
f 51 53 52
f 52 53 54
f 52 54 4
f 53 1 55
f 53 55 54
f 54 55 56
f 54 56 4
f 55 1 57
f 55 57 56
f 56 57 58
f 56 58 4
f 57 1 59
f 57 59 58
f 58 59 60
f 58 60 4
f 59 1 61
f 59 61 60
f 60 61 62
f 60 62 4
f 61 1 63
f 61 63 62
f 62 63 64
f 62 64 4
f 63 1 65
f 63 65 64
f 64 65 66
f 64 66 4
f 65 1 2
f 65 2 66
f 66 2 3
f 66 3 4
f 68 70 67
f 71 68 67
f 67 70 69
f 69 71 67
f 68 74 70
f 72 68 71
f 72 74 68
f 70 74 69
f 73 71 69
f 69 74 73
f 73 72 71
f 74 72 73
f 76 78 75
f 79 76 75
f 75 78 77
f 77 79 75
f 76 82 78
f 80 76 79
f 80 82 76
f 78 82 77
f 81 79 77
f 77 82 81
f 81 80 79
f 82 80 81
f 84 83 87
f 84 87 85
f 85 87 88
f 85 88 86
f 87 83 89
f 87 89 88
f 88 89 90
f 88 90 86
f 89 83 91
f 89 91 90
f 90 91 92
f 90 92 86
f 91 83 93
f 91 93 92
f 92 93 94
f 92 94 86
f 93 83 95
f 93 95 94
f 94 95 96
f 94 96 86
f 95 83 97
f 95 97 96
f 96 97 98
f 96 98 86
f 97 83 99
f 97 99 98
f 98 99 100
f 98 100 86
f 99 83 101
f 99 101 100
f 100 101 102
f 100 102 86
f 101 83 103
f 101 103 102
f 102 103 104
f 102 104 86
f 103 83 105
f 103 105 104
f 104 105 106
f 104 106 86
f 105 83 107
f 105 107 106
f 106 107 108
f 106 108 86
f 107 83 109
f 107 109 108
f 108 109 110
f 108 110 86
f 109 83 111
f 109 111 110
f 110 111 112
f 110 112 86
f 111 83 113
f 111 113 112
f 112 113 114
f 112 114 86
f 113 83 115
f 113 115 114
f 114 115 116
f 114 116 86
f 115 83 117
f 115 117 116
f 116 117 118
f 116 118 86
f 117 83 119
f 117 119 118
f 118 119 120
f 118 120 86
f 119 83 121
f 119 121 120
f 120 121 122
f 120 122 86
f 121 83 123
f 121 123 122
f 122 123 124
f 122 124 86
f 123 83 125
f 123 125 124
f 124 125 126
f 124 126 86
f 125 83 127
f 125 127 126
f 126 127 128
f 126 128 86
f 127 83 129
f 127 129 128
f 128 129 130
f 128 130 86
f 129 83 131
f 129 131 130
f 130 131 132
f 130 132 86
f 131 83 133
f 131 133 132
f 132 133 134
f 132 134 86
f 133 83 135
f 133 135 134
f 134 135 136
f 134 136 86
f 135 83 137
f 135 137 136
f 136 137 138
f 136 138 86
f 137 83 139
f 137 139 138
f 138 139 140
f 138 140 86
f 139 83 141
f 139 141 140
f 140 141 142
f 140 142 86
f 141 83 143
f 141 143 142
f 142 143 144
f 142 144 86
f 143 83 145
f 143 145 144
f 144 145 146
f 144 146 86
f 145 83 147
f 145 147 146
f 146 147 148
f 146 148 86
f 147 83 84
f 147 84 148
f 148 84 85
f 148 85 86
f 150 152 149
f 153 150 149
f 149 152 151
f 151 153 149
f 150 156 152
f 154 150 153
f 154 156 150
f 152 156 151
f 155 153 151
f 151 156 155
f 155 154 153
f 156 154 155
f 158 157 161
f 158 161 159
f 159 161 162
f 159 162 160
f 161 157 163
f 161 163 162
f 162 163 164
f 162 164 160
f 163 157 165
f 163 165 164
f 164 165 166
f 164 166 160
f 165 157 167
f 165 167 166
f 166 167 168
f 166 168 160
f 167 157 169
f 167 169 168
f 168 169 170
f 168 170 160
f 169 157 171
f 169 171 170
f 170 171 172
f 170 172 160
f 171 157 173
f 171 173 172
f 172 173 174
f 172 174 160
f 173 157 175
f 173 175 174
f 174 175 176
f 174 176 160
f 175 157 177
f 175 177 176
f 176 177 178
f 176 178 160
f 177 157 179
f 177 179 178
f 178 179 180
f 178 180 160
f 179 157 181
f 179 181 180
f 180 181 182
f 180 182 160
f 181 157 183
f 181 183 182
f 182 183 184
f 182 184 160
f 183 157 185
f 183 185 184
f 184 185 186
f 184 186 160
f 185 157 187
f 185 187 186
f 186 187 188
f 186 188 160
f 187 157 189
f 187 189 188
f 188 189 190
f 188 190 160
f 189 157 191
f 189 191 190
f 190 191 192
f 190 192 160
f 191 157 193
f 191 193 192
f 192 193 194
f 192 194 160
f 193 157 195
f 193 195 194
f 194 195 196
f 194 196 160
f 195 157 197
f 195 197 196
f 196 197 198
f 196 198 160
f 197 157 199
f 197 199 198
f 198 199 200
f 198 200 160
f 199 157 201
f 199 201 200
f 200 201 202
f 200 202 160
f 201 157 203
f 201 203 202
f 202 203 204
f 202 204 160
f 203 157 205
f 203 205 204
f 204 205 206
f 204 206 160
f 205 157 207
f 205 207 206
f 206 207 208
f 206 208 160
f 207 157 209
f 207 209 208
f 208 209 210
f 208 210 160
f 209 157 211
f 209 211 210
f 210 211 212
f 210 212 160
f 211 157 213
f 211 213 212
f 212 213 214
f 212 214 160
f 213 157 215
f 213 215 214
f 214 215 216
f 214 216 160
f 215 157 217
f 215 217 216
f 216 217 218
f 216 218 160
f 217 157 219
f 217 219 218
f 218 219 220
f 218 220 160
f 219 157 221
f 219 221 220
f 220 221 222
f 220 222 160
f 221 157 158
f 221 158 222
f 222 158 159
f 222 159 160

