# https://github.com/mikedh/trimesh
v -0.55000000 1.95000000 -0.37500000 0.66666667 0.70588235 0.74509804
v -0.55000000 1.95000000 0.37500000 0.66666667 0.70588235 0.74509804
v -0.55000000 3.25000000 -0.37500000 0.66666667 0.70588235 0.74509804
v -0.55000000 3.25000000 0.37500000 0.66666667 0.70588235 0.74509804
v 0.55000000 1.95000000 -0.37500000 0.66666667 0.70588235 0.74509804
v 0.55000000 1.95000000 0.37500000 0.66666667 0.70588235 0.74509804
v 0.55000000 3.25000000 -0.37500000 0.66666667 0.70588235 0.74509804
v 0.55000000 3.25000000 0.37500000 0.66666667 0.70588235 0.74509804
v -0.45000000 2.45000000 0.32500000 0.66666667 0.70588235 0.74509804
v -0.45000000 2.45000000 0.47500000 0.66666667 0.70588235 0.74509804
v -0.45000000 3.15000000 0.32500000 0.66666667 0.70588235 0.74509804
v -0.45000000 3.15000000 0.47500000 0.66666667 0.70588235 0.74509804
v 0.45000000 2.45000000 0.32500000 0.66666667 0.70588235 0.74509804
v 0.45000000 2.45000000 0.47500000 0.66666667 0.70588235 0.74509804
v 0.45000000 3.15000000 0.32500000 0.66666667 0.70588235 0.74509804
v 0.45000000 3.15000000 0.47500000 0.66666667 0.70588235 0.74509804
v -0.97500000 2.80000000 -0.30000000 0.66666667 0.70588235 0.74509804
v -0.97500000 2.80000000 0.30000000 0.66666667 0.70588235 0.74509804
v -0.97500000 3.20000000 -0.30000000 0.66666667 0.70588235 0.74509804
v -0.97500000 3.20000000 0.30000000 0.66666667 0.70588235 0.74509804
v -0.52500000 2.80000000 -0.30000000 0.66666667 0.70588235 0.74509804
v -0.52500000 2.80000000 0.30000000 0.66666667 0.70588235 0.74509804
v -0.52500000 3.20000000 -0.30000000 0.66666667 0.70588235 0.74509804
v -0.52500000 3.20000000 0.30000000 0.66666667 0.70588235 0.74509804
v 0.52500000 2.80000000 -0.30000000 0.66666667 0.70588235 0.74509804
v 0.52500000 2.80000000 0.30000000 0.66666667 0.70588235 0.74509804
v 0.52500000 3.20000000 -0.30000000 0.66666667 0.70588235 0.74509804
v 0.52500000 3.20000000 0.30000000 0.66666667 0.70588235 0.74509804
v 0.97500000 2.80000000 -0.30000000 0.66666667 0.70588235 0.74509804
v 0.97500000 2.80000000 0.30000000 0.66666667 0.70588235 0.74509804
v 0.97500000 3.20000000 -0.30000000 0.66666667 0.70588235 0.74509804
v 0.97500000 3.20000000 0.30000000 0.66666667 0.70588235 0.74509804
v -0.25000000 2.82500000 0.37000000 0.39215686 0.43137255 0.47058824
v -0.25000000 2.82500000 0.47000000 0.39215686 0.43137255 0.47058824
v -0.25000000 3.17500000 0.37000000 0.39215686 0.43137255 0.47058824
v -0.25000000 3.17500000 0.47000000 0.39215686 0.43137255 0.47058824
v 0.25000000 2.82500000 0.37000000 0.39215686 0.43137255 0.47058824
v 0.25000000 2.82500000 0.47000000 0.39215686 0.43137255 0.47058824
v 0.25000000 3.17500000 0.37000000 0.39215686 0.43137255 0.47058824
v 0.25000000 3.17500000 0.47000000 0.39215686 0.43137255 0.47058824
v -0.25000000 3.32500000 -0.20000000 0.66666667 0.70588235 0.74509804
v -0.25000000 3.32500000 0.30000000 0.66666667 0.70588235 0.74509804
v -0.25000000 3.77500000 -0.20000000 0.66666667 0.70588235 0.74509804
v -0.25000000 3.77500000 0.30000000 0.66666667 0.70588235 0.74509804
v 0.25000000 3.32500000 -0.20000000 0.66666667 0.70588235 0.74509804
v 0.25000000 3.32500000 0.30000000 0.66666667 0.70588235 0.74509804
v 0.25000000 3.77500000 -0.20000000 0.66666667 0.70588235 0.74509804
v 0.25000000 3.77500000 0.30000000 0.66666667 0.70588235 0.74509804
v -0.20000000 3.49000000 0.27500000 0.11764706 0.70588235 0.86274510
v -0.20000000 3.49000000 0.32500000 0.11764706 0.70588235 0.86274510
v -0.20000000 3.61000000 0.27500000 0.11764706 0.70588235 0.86274510
v -0.20000000 3.61000000 0.32500000 0.11764706 0.70588235 0.86274510
v 0.20000000 3.49000000 0.27500000 0.11764706 0.70588235 0.86274510
v 0.20000000 3.49000000 0.32500000 0.11764706 0.70588235 0.86274510
v 0.20000000 3.61000000 0.27500000 0.11764706 0.70588235 0.86274510
v 0.20000000 3.61000000 0.32500000 0.11764706 0.70588235 0.86274510
v -0.04000000 3.72500000 -0.30000000 0.78431373 0.11764706 0.11764706
v -0.04000000 3.72500000 0.10000000 0.78431373 0.11764706 0.11764706
v -0.04000000 3.97500000 -0.30000000 0.78431373 0.11764706 0.11764706
v -0.04000000 3.97500000 0.10000000 0.78431373 0.11764706 0.11764706
v 0.04000000 3.72500000 -0.30000000 0.78431373 0.11764706 0.11764706
v 0.04000000 3.72500000 0.10000000 0.78431373 0.11764706 0.11764706
v 0.04000000 3.97500000 -0.30000000 0.78431373 0.11764706 0.11764706
v 0.04000000 3.97500000 0.10000000 0.78431373 0.11764706 0.11764706
v -0.50000000 1.60000000 -0.30000000 0.39215686 0.43137255 0.47058824
v -0.50000000 1.60000000 0.30000000 0.39215686 0.43137255 0.47058824
v -0.50000000 2.00000000 -0.30000000 0.39215686 0.43137255 0.47058824
v -0.50000000 2.00000000 0.30000000 0.39215686 0.43137255 0.47058824
v 0.50000000 1.60000000 -0.30000000 0.39215686 0.43137255 0.47058824
v 0.50000000 1.60000000 0.30000000 0.39215686 0.43137255 0.47058824
v 0.50000000 2.00000000 -0.30000000 0.39215686 0.43137255 0.47058824
v 0.50000000 2.00000000 0.30000000 0.39215686 0.43137255 0.47058824
v -0.40000000 1.05000000 -0.55000000 0.66666667 0.70588235 0.74509804
v -0.12000000 1.05000000 -0.55000000 0.66666667 0.70588235 0.74509804
v -0.12000000 1.05000000 0.55000000 0.66666667 0.70588235 0.74509804
v -0.40000000 1.05000000 0.55000000 0.66666667 0.70588235 0.74509804
v -0.12538012 1.10462529 -0.55000000 0.66666667 0.70588235 0.74509804
v -0.12538012 1.10462529 0.55000000 0.66666667 0.70588235 0.74509804
v -0.14131373 1.15715136 -0.55000000 0.66666667 0.70588235 0.74509804
v -0.14131373 1.15715136 0.55000000 0.66666667 0.70588235 0.74509804
v -0.16718851 1.20555967 -0.55000000 0.66666667 0.70588235 0.74509804
v -0.16718851 1.20555967 0.55000000 0.66666667 0.70588235 0.74509804
v -0.20201010 1.24798990 -0.55000000 0.66666667 0.70588235 0.74509804
v -0.20201010 1.24798990 0.55000000 0.66666667 0.70588235 0.74509804
v -0.24444033 1.28281149 -0.55000000 0.66666667 0.70588235 0.74509804
v -0.24444033 1.28281149 0.55000000 0.66666667 0.70588235 0.74509804
v -0.29284864 1.30868627 -0.55000000 0.66666667 0.70588235 0.74509804
v -0.29284864 1.30868627 0.55000000 0.66666667 0.70588235 0.74509804
v -0.34537471 1.32461988 -0.55000000 0.66666667 0.70588235 0.74509804
v -0.34537471 1.32461988 0.55000000 0.66666667 0.70588235 0.74509804
v -0.40000000 1.33000000 -0.55000000 0.66666667 0.70588235 0.74509804
v -0.40000000 1.33000000 0.55000000 0.66666667 0.70588235 0.74509804
v -0.45462529 1.32461988 -0.55000000 0.66666667 0.70588235 0.74509804
v -0.45462529 1.32461988 0.55000000 0.66666667 0.70588235 0.74509804
v -0.50715136 1.30868627 -0.55000000 0.66666667 0.70588235 0.74509804
v -0.50715136 1.30868627 0.55000000 0.66666667 0.70588235 0.74509804
v -0.55555967 1.28281149 -0.55000000 0.66666667 0.70588235 0.74509804
v -0.55555967 1.28281149 0.55000000 0.66666667 0.70588235 0.74509804
v -0.59798990 1.24798990 -0.55000000 0.66666667 0.70588235 0.74509804
v -0.59798990 1.24798990 0.55000000 0.66666667 0.70588235 0.74509804
v -0.63281149 1.20555967 -0.55000000 0.66666667 0.70588235 0.74509804
v -0.63281149 1.20555967 0.55000000 0.66666667 0.70588235 0.74509804
v -0.65868627 1.15715136 -0.55000000 0.66666667 0.70588235 0.74509804
v -0.65868627 1.15715136 0.55000000 0.66666667 0.70588235 0.74509804
v -0.67461988 1.10462529 -0.55000000 0.66666667 0.70588235 0.74509804
v -0.67461988 1.10462529 0.55000000 0.66666667 0.70588235 0.74509804
v -0.68000000 1.05000000 -0.55000000 0.66666667 0.70588235 0.74509804
v -0.68000000 1.05000000 0.55000000 0.66666667 0.70588235 0.74509804
v -0.67461988 0.99537471 -0.55000000 0.66666667 0.70588235 0.74509804
v -0.67461988 0.99537471 0.55000000 0.66666667 0.70588235 0.74509804
v -0.65868627 0.94284864 -0.55000000 0.66666667 0.70588235 0.74509804
v -0.65868627 0.94284864 0.55000000 0.66666667 0.70588235 0.74509804
v -0.63281149 0.89444033 -0.55000000 0.66666667 0.70588235 0.74509804
v -0.63281149 0.89444033 0.55000000 0.66666667 0.70588235 0.74509804
v -0.59798990 0.85201010 -0.55000000 0.66666667 0.70588235 0.74509804
v -0.59798990 0.85201010 0.55000000 0.66666667 0.70588235 0.74509804
v -0.55555967 0.81718851 -0.55000000 0.66666667 0.70588235 0.74509804
v -0.55555967 0.81718851 0.55000000 0.66666667 0.70588235 0.74509804
v -0.50715136 0.79131373 -0.55000000 0.66666667 0.70588235 0.74509804
v -0.50715136 0.79131373 0.55000000 0.66666667 0.70588235 0.74509804
v -0.45462529 0.77538012 -0.55000000 0.66666667 0.70588235 0.74509804
v -0.45462529 0.77538012 0.55000000 0.66666667 0.70588235 0.74509804
v -0.40000000 0.77000000 -0.55000000 0.66666667 0.70588235 0.74509804
v -0.40000000 0.77000000 0.55000000 0.66666667 0.70588235 0.74509804
v -0.34537471 0.77538012 -0.55000000 0.66666667 0.70588235 0.74509804
v -0.34537471 0.77538012 0.55000000 0.66666667 0.70588235 0.74509804
v -0.29284864 0.79131373 -0.55000000 0.66666667 0.70588235 0.74509804
v -0.29284864 0.79131373 0.55000000 0.66666667 0.70588235 0.74509804
v -0.24444033 0.81718851 -0.55000000 0.66666667 0.70588235 0.74509804
v -0.24444033 0.81718851 0.55000000 0.66666667 0.70588235 0.74509804
v -0.20201010 0.85201010 -0.55000000 0.66666667 0.70588235 0.74509804
v -0.20201010 0.85201010 0.55000000 0.66666667 0.70588235 0.74509804
v -0.16718851 0.89444033 -0.55000000 0.66666667 0.70588235 0.74509804
v -0.16718851 0.89444033 0.55000000 0.66666667 0.70588235 0.74509804
v -0.14131373 0.94284864 -0.55000000 0.66666667 0.70588235 0.74509804
v -0.14131373 0.94284864 0.55000000 0.66666667 0.70588235 0.74509804
v -0.12538012 0.99537471 -0.55000000 0.66666667 0.70588235 0.74509804
v -0.12538012 0.99537471 0.55000000 0.66666667 0.70588235 0.74509804
v 0.40000000 1.05000000 -0.55000000 0.66666667 0.70588235 0.74509804
v 0.68000000 1.05000000 -0.55000000 0.66666667 0.70588235 0.74509804
v 0.68000000 1.05000000 0.55000000 0.66666667 0.70588235 0.74509804
v 0.40000000 1.05000000 0.55000000 0.66666667 0.70588235 0.74509804
v 0.67461988 1.10462529 -0.55000000 0.66666667 0.70588235 0.74509804
v 0.67461988 1.10462529 0.55000000 0.66666667 0.70588235 0.74509804
v 0.65868627 1.15715136 -0.55000000 0.66666667 0.70588235 0.74509804
v 0.65868627 1.15715136 0.55000000 0.66666667 0.70588235 0.74509804
v 0.63281149 1.20555967 -0.55000000 0.66666667 0.70588235 0.74509804
v 0.63281149 1.20555967 0.55000000 0.66666667 0.70588235 0.74509804
v 0.59798990 1.24798990 -0.55000000 0.66666667 0.70588235 0.74509804
v 0.59798990 1.24798990 0.55000000 0.66666667 0.70588235 0.74509804
v 0.55555967 1.28281149 -0.55000000 0.66666667 0.70588235 0.74509804
v 0.55555967 1.28281149 0.55000000 0.66666667 0.70588235 0.74509804
v 0.50715136 1.30868627 -0.55000000 0.66666667 0.70588235 0.74509804
v 0.50715136 1.30868627 0.55000000 0.66666667 0.70588235 0.74509804
v 0.45462529 1.32461988 -0.55000000 0.66666667 0.70588235 0.74509804
v 0.45462529 1.32461988 0.55000000 0.66666667 0.70588235 0.74509804
v 0.40000000 1.33000000 -0.55000000 0.66666667 0.70588235 0.74509804
v 0.40000000 1.33000000 0.55000000 0.66666667 0.70588235 0.74509804
v 0.34537471 1.32461988 -0.55000000 0.66666667 0.70588235 0.74509804
v 0.34537471 1.32461988 0.55000000 0.66666667 0.70588235 0.74509804
v 0.29284864 1.30868627 -0.55000000 0.66666667 0.70588235 0.74509804
v 0.29284864 1.30868627 0.55000000 0.66666667 0.70588235 0.74509804
v 0.24444033 1.28281149 -0.55000000 0.66666667 0.70588235 0.74509804
v 0.24444033 1.28281149 0.55000000 0.66666667 0.70588235 0.74509804
v 0.20201010 1.24798990 -0.55000000 0.66666667 0.70588235 0.74509804
v 0.20201010 1.24798990 0.55000000 0.66666667 0.70588235 0.74509804
v 0.16718851 1.20555967 -0.55000000 0.66666667 0.70588235 0.74509804
v 0.16718851 1.20555967 0.55000000 0.66666667 0.70588235 0.74509804
v 0.14131373 1.15715136 -0.55000000 0.66666667 0.70588235 0.74509804
v 0.14131373 1.15715136 0.55000000 0.66666667 0.70588235 0.74509804
v 0.12538012 1.10462529 -0.55000000 0.66666667 0.70588235 0.74509804
v 0.12538012 1.10462529 0.55000000 0.66666667 0.70588235 0.74509804
v 0.12000000 1.05000000 -0.55000000 0.66666667 0.70588235 0.74509804
v 0.12000000 1.05000000 0.55000000 0.66666667 0.70588235 0.74509804
v 0.12538012 0.99537471 -0.55000000 0.66666667 0.70588235 0.74509804
v 0.12538012 0.99537471 0.55000000 0.66666667 0.70588235 0.74509804
v 0.14131373 0.94284864 -0.55000000 0.66666667 0.70588235 0.74509804
v 0.14131373 0.94284864 0.55000000 0.66666667 0.70588235 0.74509804
v 0.16718851 0.89444033 -0.55000000 0.66666667 0.70588235 0.74509804
v 0.16718851 0.89444033 0.55000000 0.66666667 0.70588235 0.74509804
v 0.20201010 0.85201010 -0.55000000 0.66666667 0.70588235 0.74509804
v 0.20201010 0.85201010 0.55000000 0.66666667 0.70588235 0.74509804
v 0.24444033 0.81718851 -0.55000000 0.66666667 0.70588235 0.74509804
v 0.24444033 0.81718851 0.55000000 0.66666667 0.70588235 0.74509804
v 0.29284864 0.79131373 -0.55000000 0.66666667 0.70588235 0.74509804
v 0.29284864 0.79131373 0.55000000 0.66666667 0.70588235 0.74509804
v 0.34537471 0.77538012 -0.55000000 0.66666667 0.70588235 0.74509804
v 0.34537471 0.77538012 0.55000000 0.66666667 0.70588235 0.74509804
v 0.40000000 0.77000000 -0.55000000 0.66666667 0.70588235 0.74509804
v 0.40000000 0.77000000 0.55000000 0.66666667 0.70588235 0.74509804
v 0.45462529 0.77538012 -0.55000000 0.66666667 0.70588235 0.74509804
v 0.45462529 0.77538012 0.55000000 0.66666667 0.70588235 0.74509804
v 0.50715136 0.79131373 -0.55000000 0.66666667 0.70588235 0.74509804
v 0.50715136 0.79131373 0.55000000 0.66666667 0.70588235 0.74509804
v 0.55555967 0.81718851 -0.55000000 0.66666667 0.70588235 0.74509804
v 0.55555967 0.81718851 0.55000000 0.66666667 0.70588235 0.74509804
v 0.59798990 0.85201010 -0.55000000 0.66666667 0.70588235 0.74509804
v 0.59798990 0.85201010 0.55000000 0.66666667 0.70588235 0.74509804
v 0.63281149 0.89444033 -0.55000000 0.66666667 0.70588235 0.74509804
v 0.63281149 0.89444033 0.55000000 0.66666667 0.70588235 0.74509804
v 0.65868627 0.94284864 -0.55000000 0.66666667 0.70588235 0.74509804
v 0.65868627 0.94284864 0.55000000 0.66666667 0.70588235 0.74509804
v 0.67461988 0.99537471 -0.55000000 0.66666667 0.70588235 0.74509804
v 0.67461988 0.99537471 0.55000000 0.66666667 0.70588235 0.74509804
v -0.62500000 0.37500000 -0.12500000 0.66666667 0.70588235 0.74509804
v -0.62500000 0.37500000 0.32500000 0.66666667 0.70588235 0.74509804
v -0.62500000 0.62500000 -0.12500000 0.66666667 0.70588235 0.74509804
v -0.62500000 0.62500000 0.32500000 0.66666667 0.70588235 0.74509804
v -0.17500000 0.37500000 -0.12500000 0.66666667 0.70588235 0.74509804
v -0.17500000 0.37500000 0.32500000 0.66666667 0.70588235 0.74509804
v -0.17500000 0.62500000 -0.12500000 0.66666667 0.70588235 0.74509804
v -0.17500000 0.62500000 0.32500000 0.66666667 0.70588235 0.74509804
v 0.17500000 0.37500000 -0.12500000 0.66666667 0.70588235 0.74509804
v 0.17500000 0.37500000 0.32500000 0.66666667 0.70588235 0.74509804
v 0.17500000 0.62500000 -0.12500000 0.66666667 0.70588235 0.74509804
v 0.17500000 0.62500000 0.32500000 0.66666667 0.70588235 0.74509804
v 0.62500000 0.37500000 -0.12500000 0.66666667 0.70588235 0.74509804
v 0.62500000 0.37500000 0.32500000 0.66666667 0.70588235 0.74509804
v 0.62500000 0.62500000 -0.12500000 0.66666667 0.70588235 0.74509804
v 0.62500000 0.62500000 0.32500000 0.66666667 0.70588235 0.74509804
v -0.40000000 0.10000000 -0.50000000 0.66666667 0.70588235 0.74509804
v -0.18000000 0.10000000 -0.50000000 0.66666667 0.70588235 0.74509804
v -0.18000000 0.10000000 0.50000000 0.66666667 0.70588235 0.74509804
v -0.40000000 0.10000000 0.50000000 0.66666667 0.70588235 0.74509804
v -0.18422724 0.14291987 -0.50000000 0.66666667 0.70588235 0.74509804
v -0.18422724 0.14291987 0.50000000 0.66666667 0.70588235 0.74509804
v -0.19674650 0.18419036 -0.50000000 0.66666667 0.70588235 0.74509804
v -0.19674650 0.18419036 0.50000000 0.66666667 0.70588235 0.74509804
v -0.21707669 0.22222545 -0.50000000 0.66666667 0.70588235 0.74509804
v -0.21707669 0.22222545 0.50000000 0.66666667 0.70588235 0.74509804
v -0.24443651 0.25556349 -0.50000000 0.66666667 0.70588235 0.74509804
v -0.24443651 0.25556349 0.50000000 0.66666667 0.70588235 0.74509804
v -0.27777455 0.28292331 -0.50000000 0.66666667 0.70588235 0.74509804
v -0.27777455 0.28292331 0.50000000 0.66666667 0.70588235 0.74509804
v -0.31580964 0.30325350 -0.50000000 0.66666667 0.70588235 0.74509804
v -0.31580964 0.30325350 0.50000000 0.66666667 0.70588235 0.74509804
v -0.35708013 0.31577276 -0.50000000 0.66666667 0.70588235 0.74509804
v -0.35708013 0.31577276 0.50000000 0.66666667 0.70588235 0.74509804
v -0.40000000 0.32000000 -0.50000000 0.66666667 0.70588235 0.74509804
v -0.40000000 0.32000000 0.50000000 0.66666667 0.70588235 0.74509804
v -0.44291987 0.31577276 -0.50000000 0.66666667 0.70588235 0.74509804
v -0.44291987 0.31577276 0.50000000 0.66666667 0.70588235 0.74509804
v -0.48419036 0.30325350 -0.50000000 0.66666667 0.70588235 0.74509804
v -0.48419036 0.30325350 0.50000000 0.66666667 0.70588235 0.74509804
v -0.52222545 0.28292331 -0.50000000 0.66666667 0.70588235 0.74509804
v -0.52222545 0.28292331 0.50000000 0.66666667 0.70588235 0.74509804
v -0.55556349 0.25556349 -0.50000000 0.66666667 0.70588235 0.74509804
v -0.55556349 0.25556349 0.50000000 0.66666667 0.70588235 0.74509804
v -0.58292331 0.22222545 -0.50000000 0.66666667 0.70588235 0.74509804
v -0.58292331 0.22222545 0.50000000 0.66666667 0.70588235 0.74509804
v -0.60325350 0.18419036 -0.50000000 0.66666667 0.70588235 0.74509804
v -0.60325350 0.18419036 0.50000000 0.66666667 0.70588235 0.74509804
v -0.61577276 0.14291987 -0.50000000 0.66666667 0.70588235 0.74509804
v -0.61577276 0.14291987 0.50000000 0.66666667 0.70588235 0.74509804
v -0.62000000 0.10000000 -0.50000000 0.66666667 0.70588235 0.74509804
v -0.62000000 0.10000000 0.50000000 0.66666667 0.70588235 0.74509804
v -0.61577276 0.05708013 -0.50000000 0.66666667 0.70588235 0.74509804
v -0.61577276 0.05708013 0.50000000 0.66666667 0.70588235 0.74509804
v -0.60325350 0.01580964 -0.50000000 0.66666667 0.70588235 0.74509804
v -0.60325350 0.01580964 0.50000000 0.66666667 0.70588235 0.74509804
v -0.58292331 -0.02222545 -0.50000000 0.66666667 0.70588235 0.74509804
v -0.58292331 -0.02222545 0.50000000 0.66666667 0.70588235 0.74509804
v -0.55556349 -0.05556349 -0.50000000 0.66666667 0.70588235 0.74509804
v -0.55556349 -0.05556349 0.50000000 0.66666667 0.70588235 0.74509804
v -0.52222545 -0.08292331 -0.50000000 0.66666667 0.70588235 0.74509804
v -0.52222545 -0.08292331 0.50000000 0.66666667 0.70588235 0.74509804
v -0.48419036 -0.10325350 -0.50000000 0.66666667 0.70588235 0.74509804
v -0.48419036 -0.10325350 0.50000000 0.66666667 0.70588235 0.74509804
v -0.44291987 -0.11577276 -0.50000000 0.66666667 0.70588235 0.74509804
v -0.44291987 -0.11577276 0.50000000 0.66666667 0.70588235 0.74509804
v -0.40000000 -0.12000000 -0.50000000 0.66666667 0.70588235 0.74509804
v -0.40000000 -0.12000000 0.50000000 0.66666667 0.70588235 0.74509804
v -0.35708013 -0.11577276 -0.50000000 0.66666667 0.70588235 0.74509804
v -0.35708013 -0.11577276 0.50000000 0.66666667 0.70588235 0.74509804
v -0.31580964 -0.10325350 -0.50000000 0.66666667 0.70588235 0.74509804
v -0.31580964 -0.10325350 0.50000000 0.66666667 0.70588235 0.74509804
v -0.27777455 -0.08292331 -0.50000000 0.66666667 0.70588235 0.74509804
v -0.27777455 -0.08292331 0.50000000 0.66666667 0.70588235 0.74509804
v -0.24443651 -0.05556349 -0.50000000 0.66666667 0.70588235 0.74509804
v -0.24443651 -0.05556349 0.50000000 0.66666667 0.70588235 0.74509804
v -0.21707669 -0.02222545 -0.50000000 0.66666667 0.70588235 0.74509804
v -0.21707669 -0.02222545 0.50000000 0.66666667 0.70588235 0.74509804
v -0.19674650 0.01580964 -0.50000000 0.66666667 0.70588235 0.74509804
v -0.19674650 0.01580964 0.50000000 0.66666667 0.70588235 0.74509804
v -0.18422724 0.05708013 -0.50000000 0.66666667 0.70588235 0.74509804
v -0.18422724 0.05708013 0.50000000 0.66666667 0.70588235 0.74509804
v 0.40000000 0.10000000 -0.50000000 0.66666667 0.70588235 0.74509804
v 0.62000000 0.10000000 -0.50000000 0.66666667 0.70588235 0.74509804
v 0.62000000 0.10000000 0.50000000 0.66666667 0.70588235 0.74509804
v 0.40000000 0.10000000 0.50000000 0.66666667 0.70588235 0.74509804
v 0.61577276 0.14291987 -0.50000000 0.66666667 0.70588235 0.74509804
v 0.61577276 0.14291987 0.50000000 0.66666667 0.70588235 0.74509804
v 0.60325350 0.18419036 -0.50000000 0.66666667 0.70588235 0.74509804
v 0.60325350 0.18419036 0.50000000 0.66666667 0.70588235 0.74509804
v 0.58292331 0.22222545 -0.50000000 0.66666667 0.70588235 0.74509804
v 0.58292331 0.22222545 0.50000000 0.66666667 0.70588235 0.74509804
v 0.55556349 0.25556349 -0.50000000 0.66666667 0.70588235 0.74509804
v 0.55556349 0.25556349 0.50000000 0.66666667 0.70588235 0.74509804
v 0.52222545 0.28292331 -0.50000000 0.66666667 0.70588235 0.74509804
v 0.52222545 0.28292331 0.50000000 0.66666667 0.70588235 0.74509804
v 0.48419036 0.30325350 -0.50000000 0.66666667 0.70588235 0.74509804
v 0.48419036 0.30325350 0.50000000 0.66666667 0.70588235 0.74509804
v 0.44291987 0.31577276 -0.50000000 0.66666667 0.70588235 0.74509804
v 0.44291987 0.31577276 0.50000000 0.66666667 0.70588235 0.74509804
v 0.40000000 0.32000000 -0.50000000 0.66666667 0.70588235 0.74509804
v 0.40000000 0.32000000 0.50000000 0.66666667 0.70588235 0.74509804
v 0.35708013 0.31577276 -0.50000000 0.66666667 0.70588235 0.74509804
v 0.35708013 0.31577276 0.50000000 0.66666667 0.70588235 0.74509804
v 0.31580964 0.30325350 -0.50000000 0.66666667 0.70588235 0.74509804
v 0.31580964 0.30325350 0.50000000 0.66666667 0.70588235 0.74509804
v 0.27777455 0.28292331 -0.50000000 0.66666667 0.70588235 0.74509804
v 0.27777455 0.28292331 0.50000000 0.66666667 0.70588235 0.74509804
v 0.24443651 0.25556349 -0.50000000 0.66666667 0.70588235 0.74509804
v 0.24443651 0.25556349 0.50000000 0.66666667 0.70588235 0.74509804
v 0.21707669 0.22222545 -0.50000000 0.66666667 0.70588235 0.74509804
v 0.21707669 0.22222545 0.50000000 0.66666667 0.70588235 0.74509804
v 0.19674650 0.18419036 -0.50000000 0.66666667 0.70588235 0.74509804
v 0.19674650 0.18419036 0.50000000 0.66666667 0.70588235 0.74509804
v 0.18422724 0.14291987 -0.50000000 0.66666667 0.70588235 0.74509804
v 0.18422724 0.14291987 0.50000000 0.66666667 0.70588235 0.74509804
v 0.18000000 0.10000000 -0.50000000 0.66666667 0.70588235 0.74509804
v 0.18000000 0.10000000 0.50000000 0.66666667 0.70588235 0.74509804
v 0.18422724 0.05708013 -0.50000000 0.66666667 0.70588235 0.74509804
v 0.18422724 0.05708013 0.50000000 0.66666667 0.70588235 0.74509804
v 0.19674650 0.01580964 -0.50000000 0.66666667 0.70588235 0.74509804
v 0.19674650 0.01580964 0.50000000 0.66666667 0.70588235 0.74509804
v 0.21707669 -0.02222545 -0.50000000 0.66666667 0.70588235 0.74509804
v 0.21707669 -0.02222545 0.50000000 0.66666667 0.70588235 0.74509804
v 0.24443651 -0.05556349 -0.50000000 0.66666667 0.70588235 0.74509804
v 0.24443651 -0.05556349 0.50000000 0.66666667 0.70588235 0.74509804
v 0.27777455 -0.08292331 -0.50000000 0.66666667 0.70588235 0.74509804
v 0.27777455 -0.08292331 0.50000000 0.66666667 0.70588235 0.74509804
v 0.31580964 -0.10325350 -0.50000000 0.66666667 0.70588235 0.74509804
v 0.31580964 -0.10325350 0.50000000 0.66666667 0.70588235 0.74509804
v 0.35708013 -0.11577276 -0.50000000 0.66666667 0.70588235 0.74509804
v 0.35708013 -0.11577276 0.50000000 0.66666667 0.70588235 0.74509804
v 0.40000000 -0.12000000 -0.50000000 0.66666667 0.70588235 0.74509804
v 0.40000000 -0.12000000 0.50000000 0.66666667 0.70588235 0.74509804
v 0.44291987 -0.11577276 -0.50000000 0.66666667 0.70588235 0.74509804
v 0.44291987 -0.11577276 0.50000000 0.66666667 0.70588235 0.74509804
v 0.48419036 -0.10325350 -0.50000000 0.66666667 0.70588235 0.74509804
v 0.48419036 -0.10325350 0.50000000 0.66666667 0.70588235 0.74509804
v 0.52222545 -0.08292331 -0.50000000 0.66666667 0.70588235 0.74509804
v 0.52222545 -0.08292331 0.50000000 0.66666667 0.70588235 0.74509804
v 0.55556349 -0.05556349 -0.50000000 0.66666667 0.70588235 0.74509804
v 0.55556349 -0.05556349 0.50000000 0.66666667 0.70588235 0.74509804
v 0.58292331 -0.02222545 -0.50000000 0.66666667 0.70588235 0.74509804
v 0.58292331 -0.02222545 0.50000000 0.66666667 0.70588235 0.74509804
v 0.60325350 0.01580964 -0.50000000 0.66666667 0.70588235 0.74509804
v 0.60325350 0.01580964 0.50000000 0.66666667 0.70588235 0.74509804
v 0.61577276 0.05708013 -0.50000000 0.66666667 0.70588235 0.74509804
v 0.61577276 0.05708013 0.50000000 0.66666667 0.70588235 0.74509804
v -0.67500000 -0.45000000 -0.25000000 0.39215686 0.43137255 0.47058824
v -0.67500000 -0.45000000 0.55000000 0.39215686 0.43137255 0.47058824
v -0.67500000 -0.25000000 -0.25000000 0.39215686 0.43137255 0.47058824
v -0.67500000 -0.25000000 0.55000000 0.39215686 0.43137255 0.47058824
v -0.12500000 -0.45000000 -0.25000000 0.39215686 0.43137255 0.47058824
v -0.12500000 -0.45000000 0.55000000 0.39215686 0.43137255 0.47058824
v -0.12500000 -0.25000000 -0.25000000 0.39215686 0.43137255 0.47058824
v -0.12500000 -0.25000000 0.55000000 0.39215686 0.43137255 0.47058824
v 0.12500000 -0.45000000 -0.25000000 0.39215686 0.43137255 0.47058824
v 0.12500000 -0.45000000 0.55000000 0.39215686 0.43137255 0.47058824
v 0.12500000 -0.25000000 -0.25000000 0.39215686 0.43137255 0.47058824
v 0.12500000 -0.25000000 0.55000000 0.39215686 0.43137255 0.47058824
v 0.67500000 -0.45000000 -0.25000000 0.39215686 0.43137255 0.47058824
v 0.67500000 -0.45000000 0.55000000 0.39215686 0.43137255 0.47058824
v 0.67500000 -0.25000000 -0.25000000 0.39215686 0.43137255 0.47058824
v 0.67500000 -0.25000000 0.55000000 0.39215686 0.43137255 0.47058824
v -0.79000000 2.56000000 -0.07500000 0.66666667 0.70588235 0.74509804
v -0.79000000 2.56000000 0.57500000 0.66666667 0.70588235 0.74509804
v -0.79000000 2.84000000 -0.07500000 0.66666667 0.70588235 0.74509804
v -0.79000000 2.84000000 0.57500000 0.66666667 0.70588235 0.74509804
v -0.51000000 2.56000000 -0.07500000 0.66666667 0.70588235 0.74509804
v -0.51000000 2.56000000 0.57500000 0.66666667 0.70588235 0.74509804
v -0.51000000 2.84000000 -0.07500000 0.66666667 0.70588235 0.74509804
v -0.51000000 2.84000000 0.57500000 0.66666667 0.70588235 0.74509804
v 0.51000000 2.56000000 -0.07500000 0.66666667 0.70588235 0.74509804
v 0.51000000 2.56000000 0.57500000 0.66666667 0.70588235 0.74509804
v 0.51000000 2.84000000 -0.07500000 0.66666667 0.70588235 0.74509804
v 0.51000000 2.84000000 0.57500000 0.66666667 0.70588235 0.74509804
v 0.79000000 2.56000000 -0.07500000 0.66666667 0.70588235 0.74509804
v 0.79000000 2.56000000 0.57500000 0.66666667 0.70588235 0.74509804
v 0.79000000 2.84000000 -0.07500000 0.66666667 0.70588235 0.74509804
v 0.79000000 2.84000000 0.57500000 0.66666667 0.70588235 0.74509804
v -0.46000000 2.39000000 0.37500000 0.66666667 0.70588235 0.74509804
v -0.46000000 2.39000000 0.92500000 0.66666667 0.70588235 0.74509804
v -0.46000000 2.61000000 0.37500000 0.66666667 0.70588235 0.74509804
v -0.46000000 2.61000000 0.92500000 0.66666667 0.70588235 0.74509804
v -0.24000000 2.39000000 0.37500000 0.66666667 0.70588235 0.74509804
v -0.24000000 2.39000000 0.92500000 0.66666667 0.70588235 0.74509804
v -0.24000000 2.61000000 0.37500000 0.66666667 0.70588235 0.74509804
v -0.24000000 2.61000000 0.92500000 0.66666667 0.70588235 0.74509804
v 0.24000000 2.39000000 0.37500000 0.66666667 0.70588235 0.74509804
v 0.24000000 2.39000000 0.92500000 0.66666667 0.70588235 0.74509804
v 0.24000000 2.61000000 0.37500000 0.66666667 0.70588235 0.74509804
v 0.24000000 2.61000000 0.92500000 0.66666667 0.70588235 0.74509804
v 0.46000000 2.39000000 0.37500000 0.66666667 0.70588235 0.74509804
v 0.46000000 2.39000000 0.92500000 0.66666667 0.70588235 0.74509804
v 0.46000000 2.61000000 0.37500000 0.66666667 0.70588235 0.74509804
v 0.46000000 2.61000000 0.92500000 0.66666667 0.70588235 0.74509804
v -0.27000000 2.36000000 0.76000000 0.39215686 0.43137255 0.47058824
v -0.27000000 2.36000000 0.94000000 0.39215686 0.43137255 0.47058824
v -0.27000000 2.54000000 0.76000000 0.39215686 0.43137255 0.47058824
v -0.27000000 2.54000000 0.94000000 0.39215686 0.43137255 0.47058824
v -0.09000000 2.36000000 0.76000000 0.39215686 0.43137255 0.47058824
v -0.09000000 2.36000000 0.94000000 0.39215686 0.43137255 0.47058824
v -0.09000000 2.54000000 0.76000000 0.39215686 0.43137255 0.47058824
v -0.09000000 2.54000000 0.94000000 0.39215686 0.43137255 0.47058824
v 0.09000000 2.36000000 0.76000000 0.39215686 0.43137255 0.47058824
v 0.09000000 2.36000000 0.94000000 0.39215686 0.43137255 0.47058824
v 0.09000000 2.54000000 0.76000000 0.39215686 0.43137255 0.47058824
v 0.09000000 2.54000000 0.94000000 0.39215686 0.43137255 0.47058824
v 0.27000000 2.36000000 0.76000000 0.39215686 0.43137255 0.47058824
v 0.27000000 2.36000000 0.94000000 0.39215686 0.43137255 0.47058824
v 0.27000000 2.54000000 0.76000000 0.39215686 0.43137255 0.47058824
v 0.27000000 2.54000000 0.94000000 0.39215686 0.43137255 0.47058824
v -0.04000000 2.41000000 0.25000000 0.15686275 0.15686275 0.17647059
v -0.04000000 2.41000000 2.05000000 0.15686275 0.15686275 0.17647059
v -0.04000000 2.49000000 0.25000000 0.15686275 0.15686275 0.17647059
v -0.04000000 2.49000000 2.05000000 0.15686275 0.15686275 0.17647059
v 0.04000000 2.41000000 0.25000000 0.15686275 0.15686275 0.17647059
v 0.04000000 2.41000000 2.05000000 0.15686275 0.15686275 0.17647059
v 0.04000000 2.49000000 0.25000000 0.15686275 0.15686275 0.17647059
v 0.04000000 2.49000000 2.05000000 0.15686275 0.15686275 0.17647059
v -0.05000000 2.42000000 0.17500000 0.15686275 0.15686275 0.17647059
v -0.05000000 2.42000000 0.52500000 0.15686275 0.15686275 0.17647059
v -0.05000000 2.48000000 0.17500000 0.15686275 0.15686275 0.17647059
v -0.05000000 2.48000000 0.52500000 0.15686275 0.15686275 0.17647059
v 0.05000000 2.42000000 0.17500000 0.15686275 0.15686275 0.17647059
v 0.05000000 2.42000000 0.52500000 0.15686275 0.15686275 0.17647059
v 0.05000000 2.48000000 0.17500000 0.15686275 0.15686275 0.17647059
v 0.05000000 2.48000000 0.52500000 0.15686275 0.15686275 0.17647059
v -0.03000000 2.52500000 0.75000000 0.07843137 0.07843137 0.07843137
v -0.03000000 2.52500000 1.05000000 0.07843137 0.07843137 0.07843137
v -0.03000000 2.57500000 0.75000000 0.07843137 0.07843137 0.07843137
v -0.03000000 2.57500000 1.05000000 0.07843137 0.07843137 0.07843137
v 0.03000000 2.52500000 0.75000000 0.07843137 0.07843137 0.07843137
v 0.03000000 2.52500000 1.05000000 0.07843137 0.07843137 0.07843137
v 0.03000000 2.57500000 0.75000000 0.07843137 0.07843137 0.07843137
v 0.03000000 2.57500000 1.05000000 0.07843137 0.07843137 0.07843137
v -0.52500000 2.40000000 -0.54000000 0.39215686 0.43137255 0.47058824
v -0.52500000 2.40000000 -0.36000000 0.39215686 0.43137255 0.47058824
v -0.52500000 3.00000000 -0.54000000 0.39215686 0.43137255 0.47058824
v -0.52500000 3.00000000 -0.36000000 0.39215686 0.43137255 0.47058824
v -0.17500000 2.40000000 -0.54000000 0.39215686 0.43137255 0.47058824
v -0.17500000 2.40000000 -0.36000000 0.39215686 0.43137255 0.47058824
v -0.17500000 3.00000000 -0.54000000 0.39215686 0.43137255 0.47058824
v -0.17500000 3.00000000 -0.36000000 0.39215686 0.43137255 0.47058824
v 0.17500000 2.40000000 -0.54000000 0.39215686 0.43137255 0.47058824
v 0.17500000 2.40000000 -0.36000000 0.39215686 0.43137255 0.47058824
v 0.17500000 3.00000000 -0.54000000 0.39215686 0.43137255 0.47058824
v 0.17500000 3.00000000 -0.36000000 0.39215686 0.43137255 0.47058824
v 0.52500000 2.40000000 -0.54000000 0.39215686 0.43137255 0.47058824
v 0.52500000 2.40000000 -0.36000000 0.39215686 0.43137255 0.47058824
v 0.52500000 3.00000000 -0.54000000 0.39215686 0.43137255 0.47058824
v 0.52500000 3.00000000 -0.36000000 0.39215686 0.43137255 0.47058824
f 2 4 1
f 5 2 1
f 1 4 3
f 3 5 1
f 2 8 4
f 6 2 5
f 6 8 2
f 4 8 3
f 7 5 3
f 3 8 7
f 7 6 5
f 8 6 7
f 10 12 9
f 13 10 9
f 9 12 11
f 11 13 9
f 10 16 12
f 14 10 13
f 14 16 10
f 12 16 11
f 15 13 11
f 11 16 15
f 15 14 13
f 16 14 15
f 18 20 17
f 21 18 17
f 17 20 19
f 19 21 17
f 18 24 20
f 22 18 21
f 22 24 18
f 20 24 19
f 23 21 19
f 19 24 23
f 23 22 21
f 24 22 23
f 26 28 25
f 29 26 25
f 25 28 27
f 27 29 25
f 26 32 28
f 30 26 29
f 30 32 26
f 28 32 27
f 31 29 27
f 27 32 31
f 31 30 29
f 32 30 31
f 34 36 33
f 37 34 33
f 33 36 35
f 35 37 33
f 34 40 36
f 38 34 37
f 38 40 34
f 36 40 35
f 39 37 35
f 35 40 39
f 39 38 37
f 40 38 39
f 42 44 41
f 45 42 41
f 41 44 43
f 43 45 41
f 42 48 44
f 46 42 45
f 46 48 42
f 44 48 43
f 47 45 43
f 43 48 47
f 47 46 45
f 48 46 47
f 50 52 49
f 53 50 49
f 49 52 51
f 51 53 49
f 50 56 52
f 54 50 53
f 54 56 50
f 52 56 51
f 55 53 51
f 51 56 55
f 55 54 53
f 56 54 55
f 58 60 57
f 61 58 57
f 57 60 59
f 59 61 57
f 58 64 60
f 62 58 61
f 62 64 58
f 60 64 59
f 63 61 59
f 59 64 63
f 63 62 61
f 64 62 63
f 66 68 65
f 69 66 65
f 65 68 67
f 67 69 65
f 66 72 68
f 70 66 69
f 70 72 66
f 68 72 67
f 71 69 67
f 67 72 71
f 71 70 69
f 72 70 71
f 74 73 77
f 74 77 75
f 75 77 78
f 75 78 76
f 77 73 79
f 77 79 78
f 78 79 80
f 78 80 76
f 79 73 81
f 79 81 80
f 80 81 82
f 80 82 76
f 81 73 83
f 81 83 82
f 82 83 84
f 82 84 76
f 83 73 85
f 83 85 84
f 84 85 86
f 84 86 76
f 85 73 87
f 85 87 86
f 86 87 88
f 86 88 76
f 87 73 89
f 87 89 88
f 88 89 90
f 88 90 76
f 89 73 91
f 89 91 90
f 90 91 92
f 90 92 76
f 91 73 93
f 91 93 92
f 92 93 94
f 92 94 76
f 93 73 95
f 93 95 94
f 94 95 96
f 94 96 76
f 95 73 97
f 95 97 96
f 96 97 98
f 96 98 76
f 97 73 99
f 97 99 98
f 98 99 100
f 98 100 76
f 99 73 101
f 99 101 100
f 100 101 102
f 100 102 76
f 101 73 103
f 101 103 102
f 102 103 104
f 102 104 76
f 103 73 105
f 103 105 104
f 104 105 106
f 104 106 76
f 105 73 107
f 105 107 106
f 106 107 108
f 106 108 76
f 107 73 109
f 107 109 108
f 108 109 110
f 108 110 76
f 109 73 111
f 109 111 110
f 110 111 112
f 110 112 76
f 111 73 113
f 111 113 112
f 112 113 114
f 112 114 76
f 113 73 115
f 113 115 114
f 114 115 116
f 114 116 76
f 115 73 117
f 115 117 116
f 116 117 118
f 116 118 76
f 117 73 119
f 117 119 118
f 118 119 120
f 118 120 76
f 119 73 121
f 119 121 120
f 120 121 122
f 120 122 76
f 121 73 123
f 121 123 122
f 122 123 124
f 122 124 76
f 123 73 125
f 123 125 124
f 124 125 126
f 124 126 76
f 125 73 127
f 125 127 126
f 126 127 128
f 126 128 76
f 127 73 129
f 127 129 128
f 128 129 130
f 128 130 76
f 129 73 131
f 129 131 130
f 130 131 132
f 130 132 76
f 131 73 133
f 131 133 132
f 132 133 134
f 132 134 76
f 133 73 135
f 133 135 134
f 134 135 136
f 134 136 76
f 135 73 137
f 135 137 136
f 136 137 138
f 136 138 76
f 137 73 74
f 137 74 138
f 138 74 75
f 138 75 76
f 140 139 143
f 140 143 141
f 141 143 144
f 141 144 142
f 143 139 145
f 143 145 144
f 144 145 146
f 144 146 142
f 145 139 147
f 145 147 146
f 146 147 148
f 146 148 142
f 147 139 149
f 147 149 148
f 148 149 150
f 148 150 142
f 149 139 151
f 149 151 150
f 150 151 152
f 150 152 142
f 151 139 153
f 151 153 152
f 152 153 154
f 152 154 142
f 153 139 155
f 153 155 154
f 154 155 156
f 154 156 142
f 155 139 157
f 155 157 156
f 156 157 158
f 156 158 142
f 157 139 159
f 157 159 158
f 158 159 160
f 158 160 142
f 159 139 161
f 159 161 160
f 160 161 162
f 160 162 142
f 161 139 163
f 161 163 162
f 162 163 164
f 162 164 142
f 163 139 165
f 163 165 164
f 164 165 166
f 164 166 142
f 165 139 167
f 165 167 166
f 166 167 168
f 166 168 142
f 167 139 169
f 167 169 168
f 168 169 170
f 168 170 142
f 169 139 171
f 169 171 170
f 170 171 172
f 170 172 142
f 171 139 173
f 171 173 172
f 172 173 174
f 172 174 142
f 173 139 175
f 173 175 174
f 174 175 176
f 174 176 142
f 175 139 177
f 175 177 176
f 176 177 178
f 176 178 142
f 177 139 179
f 177 179 178
f 178 179 180
f 178 180 142
f 179 139 181
f 179 181 180
f 180 181 182
f 180 182 142
f 181 139 183
f 181 183 182
f 182 183 184
f 182 184 142
f 183 139 185
f 183 185 184
f 184 185 186
f 184 186 142
f 185 139 187
f 185 187 186
f 186 187 188
f 186 188 142
f 187 139 189
f 187 189 188
f 188 189 190
f 188 190 142
f 189 139 191
f 189 191 190
f 190 191 192
f 190 192 142
f 191 139 193
f 191 193 192
f 192 193 194
f 192 194 142
f 193 139 195
f 193 195 194
f 194 195 196
f 194 196 142
f 195 139 197
f 195 197 196
f 196 197 198
f 196 198 142
f 197 139 199
f 197 199 198
f 198 199 200
f 198 200 142
f 199 139 201
f 199 201 200
f 200 201 202
f 200 202 142
f 201 139 203
f 201 203 202
f 202 203 204
f 202 204 142
f 203 139 140
f 203 140 204
f 204 140 141
f 204 141 142
f 206 208 205
f 209 206 205
f 205 208 207
f 207 209 205
f 206 212 208
f 210 206 209
f 210 212 206
f 208 212 207
f 211 209 207
f 207 212 211
f 211 210 209
f 212 210 211
f 214 216 213
f 217 214 213
f 213 216 215
f 215 217 213
f 214 220 216
f 218 214 217
f 218 220 214
f 216 220 215
f 219 217 215
f 215 220 219
f 219 218 217
f 220 218 219
f 222 221 225
f 222 225 223
f 223 225 226
f 223 226 224
f 225 221 227
f 225 227 226
f 226 227 228
f 226 228 224
f 227 221 229
f 227 229 228
f 228 229 230
f 228 230 224
f 229 221 231
f 229 231 230
f 230 231 232
f 230 232 224
f 231 221 233
f 231 233 232
f 232 233 234
f 232 234 224
f 233 221 235
f 233 235 234
f 234 235 236
f 234 236 224
f 235 221 237
f 235 237 236
f 236 237 238
f 236 238 224
f 237 221 239
f 237 239 238
f 238 239 240
f 238 240 224
f 239 221 241
f 239 241 240
f 240 241 242
f 240 242 224
f 241 221 243
f 241 243 242
f 242 243 244
f 242 244 224
f 243 221 245
f 243 245 244
f 244 245 246
f 244 246 224
f 245 221 247
f 245 247 246
f 246 247 248
f 246 248 224
f 247 221 249
f 247 249 248
f 248 249 250
f 248 250 224
f 249 221 251
f 249 251 250
f 250 251 252
f 250 252 224
f 251 221 253
f 251 253 252
f 252 253 254
f 252 254 224
f 253 221 255
f 253 255 254
f 254 255 256
f 254 256 224
f 255 221 257
f 255 257 256
f 256 257 258
f 256 258 224
f 257 221 259
f 257 259 258
f 258 259 260
f 258 260 224
f 259 221 261
f 259 261 260
f 260 261 262
f 260 262 224
f 261 221 263
f 261 263 262
f 262 263 264
f 262 264 224
f 263 221 265
f 263 265 264
f 264 265 266
f 264 266 224
f 265 221 267
f 265 267 266
f 266 267 268
f 266 268 224
f 267 221 269
f 267 269 268
f 268 269 270
f 268 270 224
f 269 221 271
f 269 271 270
f 270 271 272
f 270 272 224
f 271 221 273
f 271 273 272
f 272 273 274
f 272 274 224
f 273 221 275
f 273 275 274
f 274 275 276
f 274 276 224
f 275 221 277
f 275 277 276
f 276 277 278
f 276 278 224
f 277 221 279
f 277 279 278
f 278 279 280
f 278 280 224
f 279 221 281
f 279 281 280
f 280 281 282
f 280 282 224
f 281 221 283
f 281 283 282
f 282 283 284
f 282 284 224
f 283 221 285
f 283 285 284
f 284 285 286
f 284 286 224
f 285 221 222
f 285 222 286
f 286 222 223
f 286 223 224
f 288 287 291
f 288 291 289
f 289 291 292
f 289 292 290
f 291 287 293
f 291 293 292
f 292 293 294
f 292 294 290
f 293 287 295
f 293 295 294
f 294 295 296
f 294 296 290
f 295 287 297
f 295 297 296
f 296 297 298
f 296 298 290
f 297 287 299
f 297 299 298
f 298 299 300
f 298 300 290
f 299 287 301
f 299 301 300
f 300 301 302
f 300 302 290
f 301 287 303
f 301 303 302
f 302 303 304
f 302 304 290
f 303 287 305
f 303 305 304
f 304 305 306
f 304 306 290
f 305 287 307
f 305 307 306
f 306 307 308
f 306 308 290
f 307 287 309
f 307 309 308
f 308 309 310
f 308 310 290
f 309 287 311
f 309 311 310
f 310 311 312
f 310 312 290
f 311 287 313
f 311 313 312
f 312 313 314
f 312 314 290
f 313 287 315
f 313 315 314
f 314 315 316
f 314 316 290
f 315 287 317
f 315 317 316
f 316 317 318
f 316 318 290
f 317 287 319
f 317 319 318
f 318 319 320
f 318 320 290
f 319 287 321
f 319 321 320
f 320 321 322
f 320 322 290
f 321 287 323
f 321 323 322
f 322 323 324
f 322 324 290
f 323 287 325
f 323 325 324
f 324 325 326
f 324 326 290
f 325 287 327
f 325 327 326
f 326 327 328
f 326 328 290
f 327 287 329
f 327 329 328
f 328 329 330
f 328 330 290
f 329 287 331
f 329 331 330
f 330 331 332
f 330 332 290
f 331 287 333
f 331 333 332
f 332 333 334
f 332 334 290
f 333 287 335
f 333 335 334
f 334 335 336
f 334 336 290
f 335 287 337
f 335 337 336
f 336 337 338
f 336 338 290
f 337 287 339
f 337 339 338
f 338 339 340
f 338 340 290
f 339 287 341
f 339 341 340
f 340 341 342
f 340 342 290
f 341 287 343
f 341 343 342
f 342 343 344
f 342 344 290
f 343 287 345
f 343 345 344
f 344 345 346
f 344 346 290
f 345 287 347
f 345 347 346
f 346 347 348
f 346 348 290
f 347 287 349
f 347 349 348
f 348 349 350
f 348 350 290
f 349 287 351
f 349 351 350
f 350 351 352
f 350 352 290
f 351 287 288
f 351 288 352
f 352 288 289
f 352 289 290
f 354 356 353
f 357 354 353
f 353 356 355
f 355 357 353
f 354 360 356
f 358 354 357
f 358 360 354
f 356 360 355
f 359 357 355
f 355 360 359
f 359 358 357
f 360 358 359
f 362 364 361
f 365 362 361
f 361 364 363
f 363 365 361
f 362 368 364
f 366 362 365
f 366 368 362
f 364 368 363
f 367 365 363
f 363 368 367
f 367 366 365
f 368 366 367
f 370 372 369
f 373 370 369
f 369 372 371
f 371 373 369
f 370 376 372
f 374 370 373
f 374 376 370
f 372 376 371
f 375 373 371
f 371 376 375
f 375 374 373
f 376 374 375
f 378 380 377
f 381 378 377
f 377 380 379
f 379 381 377
f 378 384 380
f 382 378 381
f 382 384 378
f 380 384 379
f 383 381 379
f 379 384 383
f 383 382 381
f 384 382 383
f 386 388 385
f 389 386 385
f 385 388 387
f 387 389 385
f 386 392 388
f 390 386 389
f 390 392 386
f 388 392 387
f 391 389 387
f 387 392 391
f 391 390 389
f 392 390 391
f 394 396 393
f 397 394 393
f 393 396 395
f 395 397 393
f 394 400 396
f 398 394 397
f 398 400 394
f 396 400 395
f 399 397 395
f 395 400 399
f 399 398 397
f 400 398 399
f 402 404 401
f 405 402 401
f 401 404 403
f 403 405 401
f 402 408 404
f 406 402 405
f 406 408 402
f 404 408 403
f 407 405 403
f 403 408 407
f 407 406 405
f 408 406 407
f 410 412 409
f 413 410 409
f 409 412 411
f 411 413 409
f 410 416 412
f 414 410 413
f 414 416 410
f 412 416 411
f 415 413 411
f 411 416 415
f 415 414 413
f 416 414 415
f 418 420 417
f 421 418 417
f 417 420 419
f 419 421 417
f 418 424 420
f 422 418 421
f 422 424 418
f 420 424 419
f 423 421 419
f 419 424 423
f 423 422 421
f 424 422 423
f 426 428 425
f 429 426 425
f 425 428 427
f 427 429 425
f 426 432 428
f 430 426 429
f 430 432 426
f 428 432 427
f 431 429 427
f 427 432 431
f 431 430 429
f 432 430 431
f 434 436 433
f 437 434 433
f 433 436 435
f 435 437 433
f 434 440 436
f 438 434 437
f 438 440 434
f 436 440 435
f 439 437 435
f 435 440 439
f 439 438 437
f 440 438 439
f 442 444 441
f 445 442 441
f 441 444 443
f 443 445 441
f 442 448 444
f 446 442 445
f 446 448 442
f 444 448 443
f 447 445 443
f 443 448 447
f 447 446 445
f 448 446 447
f 450 452 449
f 453 450 449
f 449 452 451
f 451 453 449
f 450 456 452
f 454 450 453
f 454 456 450
f 452 456 451
f 455 453 451
f 451 456 455
f 455 454 453
f 456 454 455

